<svg width="60" height="60" viewBox="0 0 60 60" fill="none" xmlns="http://www.w3.org/2000/svg">
<path d="M28.4949 9.26046C29.2129 9.32367 29.9211 9.30098 30.5711 9.48088C30.8596 9.56192 31.1481 10.0222 31.2437 10.3642C31.9941 13.0498 31.6181 15.7014 30.9989 18.3643C30.0897 22.2865 28.2582 25.836 26.6326 29.4649C25.6164 31.7339 24.9114 34.0532 25.3555 36.5233C25.759 38.7697 26.7072 40.8345 27.9973 42.7454C29.4722 44.9269 30.8677 47.1636 32.2972 49.3743C33.5565 51.3192 33.6359 53.3824 32.8871 55.5251C32.4544 56.7682 32.0557 58.0243 31.5905 59.2528C31.4819 59.5413 31.1659 59.7536 30.9422 60C30.8028 59.6661 30.5549 59.3355 30.5419 58.9967C30.4949 57.6904 30.5224 56.3841 30.5224 54.8427C29.7234 56.094 29.0638 57.1734 28.3458 58.2042C28.1707 58.4538 27.7639 58.5413 27.4641 58.7018C27.4219 58.3598 27.2518 57.9676 27.3603 57.6807C28.4608 54.7828 28.3166 51.9853 26.6861 49.3338C25.3425 47.1474 23.96 44.9804 22.5126 42.8621C21.0183 40.6805 19.9421 38.3531 19.5596 35.7194C19.2598 33.6643 19.6552 31.6772 20.4332 29.8279C21.8238 26.5264 23.3165 23.259 24.9308 20.0612C26.6051 16.7419 27.9957 13.361 28.3798 9.62999C28.4049 9.50308 28.4435 9.3792 28.4949 9.26046ZM30.4916 11.758C30.5105 11.6231 30.5105 11.4862 30.4916 11.3512C30.3636 11.0271 30.2145 10.7159 30.0735 10.3982C29.9325 10.7127 29.7299 11.0206 29.6748 11.3448C29.4949 12.4112 29.5305 13.5441 29.1886 14.5522C28.1659 17.5993 27.0151 20.6074 25.8806 23.6172C25.3004 25.1553 24.6294 26.6577 24.0443 28.1942C23.9697 28.3935 24.161 28.695 24.229 28.9495C24.4397 28.802 24.759 28.6999 24.8465 28.4989C25.8952 26.0515 26.9325 23.601 27.926 21.1309C29.1675 18.0758 30.2566 14.9736 30.4916 11.758Z" fill="#E84376"/>
<path d="M40.0964 43.6709C40.5518 45.2722 40.9279 46.5882 41.3023 47.9092L41.0267 48.102C40.7236 47.9708 40.3622 47.9092 40.1288 47.7017C36.2909 44.2819 34.6004 40.0047 35.1968 34.8977C35.4675 32.5784 35.9197 30.2818 36.2633 27.9722C36.6247 25.541 35.863 23.3481 34.7965 21.2347C34.2049 20.0612 33.5242 18.9316 32.9035 17.7711C32.7689 17.5477 32.6957 17.2928 32.6912 17.032C32.8435 14.4388 32.7997 11.8553 32.0428 9.25239C33.0267 9.2297 33.5356 9.70134 33.9343 10.3869C34.5972 11.5215 35.1952 12.7095 35.97 13.763C37.0948 15.2962 38.3525 16.7322 39.5583 18.2055C40.9603 19.917 41.4108 21.9511 41.5632 24.0856C41.7674 26.9527 41.3071 29.7583 40.4206 32.452C39.4222 35.486 40.0381 38.2381 41.4416 40.8994C42.252 42.4358 43.2909 43.8508 44.1775 45.35C44.3639 45.666 44.3396 46.1085 44.4028 46.4926C44.0543 46.4018 43.641 46.4002 43.3687 46.2025C42.3331 45.4472 41.3412 44.6401 40.0964 43.6709ZM38.6377 24.6026L39.0672 24.4405C39.0186 23.9106 39.0915 23.3319 38.9052 22.8603C38.1418 20.9786 37.3638 19.0969 36.4578 17.28C35.9294 16.2071 35.158 15.2346 34.4481 14.2622C34.3216 14.0871 33.9618 14.0823 33.7074 13.998C33.6957 14.2563 33.7011 14.5151 33.7236 14.7727C33.7398 14.8878 33.8646 14.9899 33.9456 15.0969C35.968 17.6578 37.4141 20.6248 38.1855 23.7955C38.2585 24.0775 38.4886 24.3303 38.6458 24.6026H38.6377Z" fill="#E84376"/>
<path d="M21.8838 3.14204C18.8838 4.7547 15.8319 5.59101 12.3473 4.58452C10.498 4.05129 8.45746 4.1615 6.51255 4.00915C6.24762 3.99505 5.98628 4.07546 5.7751 4.23605C5.58223 4.39813 5.33912 4.80656 5.40881 4.90867C5.56278 5.13234 5.9388 5.40462 6.15436 5.35438C8.43153 4.82763 10.5709 5.39004 12.7395 6.00268C15.5272 6.78713 18.2501 6.35601 20.7931 5.06102C22.8563 4.01077 24.9503 3.48726 27.2372 3.92649V8.16802C23.845 8.30417 20.7331 9.33173 17.6293 10.4128C16.3327 10.8682 15.0199 11.4339 13.6714 11.6073C10.9518 11.9606 8.26135 11.8812 6.07008 9.81147C4.60978 8.42734 3.98254 6.73041 4.00037 4.76442C4.00847 3.96539 4.47363 3.43054 5.23539 3.31384C7.82861 2.92 10.4218 2.34139 13.0361 2.2879C15.9713 2.22145 18.9179 2.63636 21.8595 2.8422L21.8838 3.14204Z" fill="#E84376"/>
<path d="M33.3361 8.7192C33.6359 7.49876 33.8888 6.45824 34.106 5.57168C36.375 5.65758 38.6943 5.92176 40.9877 5.79372C45.2017 5.55709 49.2423 4.58464 52.9036 2.36095C53.9165 1.74668 54.5924 1.97197 55.0478 3.06274C55.808 4.88448 54.9571 7.01254 53.0365 8.16328C51.0494 9.35292 48.8419 9.90722 46.6069 10.293C43.4464 10.8392 40.2519 11.058 37.1125 10.1682C35.798 9.797 34.5533 9.1957 33.3361 8.7192Z" fill="#E84376"/>
<path d="M33.6603 3.8747C34.3783 3.49868 34.8937 3.12104 35.4707 2.94276C39.6458 1.65588 43.7868 0.161535 48.2244 0.00756224C49.7544 -0.0475436 51.2423 0.190708 52.6005 0.980019C50.1272 3.95574 38.1449 5.86499 33.6603 3.8747Z" fill="#E84376"/>
<path d="M32.9343 5.52137C32.9019 7.8731 30.521 9.31557 28.5193 8.16969C28.3573 8.07569 28.26 7.74019 28.247 7.51167C28.213 6.82608 28.2341 6.13726 28.2357 5.44844C28.2357 3.7045 29.072 2.74501 30.6134 2.71583C32.098 2.68828 32.9586 3.72719 32.9343 5.52137Z" fill="#E84376"/>
</svg>
