<svg width="91" height="60" viewBox="0 0 91 60" fill="none" xmlns="http://www.w3.org/2000/svg">
<path d="M72.8344 25.0805C74.2922 32.5735 77.7948 45.1904 79.1181 47.7301C80.6432 47.3593 82.1684 46.9886 83.6786 46.577C85.5476 46.0691 87.383 46.2508 89.1848 46.6882C90.4295 46.9923 91.4501 48.2046 90.7959 49.747C90.6292 50.1328 90.3993 50.4885 90.1156 50.7999C88.2626 52.766 86.1397 54.4635 83.8094 55.8422C82.5571 56.6282 81.2451 57.3253 79.918 57.9815C78.2743 58.8384 76.5102 59.4458 74.6847 59.7834C74.0081 59.8983 73.3203 59.9428 72.6362 59.991C71.2419 60.0948 70.3224 59.2866 69.586 58.2855C69.3553 57.9656 69.2173 57.5892 69.187 57.197C69.1567 56.8049 69.2352 56.412 69.414 56.061C70.1355 54.3777 71.5634 53.3359 72.8605 52.1792C73.4025 51.7667 73.9748 51.3949 74.5726 51.0669C74.7931 51.7379 75.051 52.3571 75.1931 53.0022C75.2438 53.2878 75.363 53.5571 75.5406 53.7875C75.7182 54.0178 75.949 54.2025 76.2136 54.3258C76.8379 54.6373 77.4472 54.3852 77.492 53.7289C77.5642 53.2098 77.5169 52.6812 77.3537 52.1829C76.4603 50.0584 75.4847 47.9748 74.5427 45.88C74.0119 44.6824 73.5072 43.4738 72.9876 42.2725C72.8677 41.9804 72.7279 41.6967 72.569 41.4235C70.7921 38.4797 69.009 35.5482 67.2197 32.6291C66.588 31.5984 65.9787 30.5492 65.3245 29.5296C65.0143 29.0476 64.6255 28.6138 64.2592 28.143C63.1041 28.321 62.0163 28.5137 60.9173 28.6546C59.4483 28.8363 57.9717 29.1403 56.5026 29.0958C52.3459 28.9735 49.0526 27.242 46.9892 23.5345C46.5321 22.6518 46.1567 21.7298 45.8678 20.7798C45.2435 18.9482 44.6716 17.0981 44.0922 15.2518C43.5651 13.576 43.924 12.2079 45.6173 11.4367C47.6306 10.51 49.7096 9.73055 51.8375 9.10462C52.8954 8.79319 53.9084 8.31862 54.9439 7.92562C55.7812 7.61418 56.6111 7.26196 57.4708 7.02097C60.6258 6.13486 63.6461 4.87058 66.7076 3.72865C69.3243 2.74985 71.9073 1.65612 74.5277 0.669905C75.3694 0.385744 76.2334 0.171208 77.1107 0.0284952C77.3732 -0.0284201 77.6472 0.000404768 77.8917 0.110664C78.1363 0.220924 78.3383 0.4067 78.4677 0.640244C78.9564 1.38701 79.3731 2.17773 79.7124 3.00197C80.4601 5.1264 81.0619 7.30274 81.8432 9.41606C82.3628 10.8286 82.3067 12.308 82.5908 13.7428C82.6688 14.4238 82.5549 15.113 82.2618 15.7338C81.7161 17.0351 81.1404 18.3291 80.1835 19.4413C78.6813 21.1405 76.9037 22.579 74.924 23.6976C74.1913 24.1017 73.5147 24.6208 72.8344 25.0805ZM75.395 6.83559C74.3109 6.96536 73.2119 7.15815 72.1092 7.20635C69.2682 7.35094 66.5955 8.19627 64.005 9.21956C61.5491 10.1984 59.2165 11.4701 56.8204 12.6083C55.0735 13.4834 53.2394 14.1755 51.3478 14.6734C50.4263 14.8995 49.4911 15.0666 48.548 15.1739C46.7574 15.3667 46.1967 16.2862 46.7836 17.9323C47.6546 20.3497 49.3218 22.2924 50.5553 24.491C50.6737 24.6666 50.8202 24.8219 50.989 24.9508C52.2543 26.005 53.7933 26.6847 55.4298 26.9121C57.7559 27.2308 60.1257 26.9261 62.2929 26.0297C65.0965 24.9174 67.93 23.9164 70.7149 22.7707C73.2653 21.7322 75.7027 20.439 77.9892 18.9111C78.8846 18.3331 79.5718 17.4879 79.9517 16.4975C80.8695 14.127 80.9876 11.5251 80.2881 9.08238C80.019 8.09987 79.462 7.25825 78.2621 7.14332C77.3201 7.04692 76.3781 6.94311 75.395 6.83559Z" fill="#72D1D1"/>
<path d="M11.4699 50.1177C11.6829 49.3058 11.9184 48.5124 12.0941 47.7078C12.5165 45.7613 12.9464 43.8186 13.2978 41.861C13.5296 40.5745 13.623 39.2657 13.7912 37.968C13.9221 36.9818 14.0192 35.9845 14.2323 35.002C14.6921 32.8961 14.1351 30.9237 13.3389 29.0439C13.1894 28.6732 12.6362 28.4359 12.2175 28.3024C11.425 28.0132 10.5952 27.8316 9.78025 27.6054C7.44394 26.9603 5.48518 25.5662 3.45914 24.3353C2.63245 23.7667 1.89548 23.0795 1.27236 22.2962C0.722763 21.6543 0.383699 20.8614 0.300453 20.0234C-0.00300431 17.5103 -0.0343336 14.9723 0.207001 12.4526C0.34531 10.8954 0.0948579 9.30483 0.0238342 7.72912C-0.00794472 7.41352 -0.00794472 7.09557 0.0238342 6.77998C0.0578199 6.4634 0.212719 6.17174 0.456725 5.96489C0.70073 5.75805 1.01532 5.6517 1.3359 5.66771C3.34326 5.80118 5.35061 5.93836 7.34675 6.15711C9.34289 6.37585 11.3241 6.67987 13.3277 6.96536C15.3313 7.25084 17.1854 7.55115 19.118 7.82922C20.8413 8.07763 22.5683 8.29267 24.2915 8.54478C26.2241 8.83026 28.1492 9.16024 30.0818 9.4346C31.2294 9.59773 32.392 9.6793 33.547 9.80535C34.2836 9.87696 35.016 9.98586 35.7413 10.1316C37.1767 10.4579 38.6944 10.4023 40.0663 11.0326C40.3504 11.1623 40.6756 11.2179 40.9522 11.3625C41.6998 11.7592 41.9054 12.2857 41.7372 13.157C40.9864 17.1176 39.9877 21.028 38.7467 24.8655C38.2759 26.4495 37.2038 27.7905 35.7562 28.6064C34.5491 29.2597 33.2337 29.6929 31.8724 29.8855C29.7143 30.1889 27.5285 30.2486 25.3569 30.0635C24.0037 29.9708 23.2112 30.5455 22.6019 31.5243C21.6317 33.036 20.8069 34.6348 20.1385 36.2996C19.1741 38.7948 18.5535 41.3938 17.5854 43.8816C17.0135 45.3646 16.3481 46.7809 15.8546 48.2714C15.2603 50.0584 14.6622 51.864 14.6996 53.7882C14.6996 53.9922 14.7407 54.1961 14.7743 54.5038L16.0939 54.6039C16.9499 53.6399 16.4303 52.4758 16.8415 51.382C17.2285 51.4622 17.6048 51.5866 17.9629 51.7528C19.2638 52.5647 20.531 53.4323 21.8206 54.2591C22.9757 55.0006 23.1551 56.1129 23.0168 57.3141C22.9271 58.0927 21.5216 59.1457 20.5497 59.3311C18.9199 59.6462 17.2938 59.3867 15.6902 59.2717C14.5905 59.1469 13.4995 58.9563 12.4231 58.7008C8.9018 58.0112 5.61602 56.7506 2.76012 54.552C2.0125 53.9847 1.21629 53.3878 1.26488 52.2533C1.25813 52.0445 1.2937 51.8366 1.36946 51.6417C1.44523 51.4468 1.55966 51.269 1.70597 51.1188C2.09196 50.7182 2.55619 50.3998 3.07034 50.1831C3.5845 49.9664 4.13779 49.8558 4.69645 49.8582C6.38606 49.8582 8.08689 49.6135 9.76904 50.077C10.2587 50.2327 10.8194 50.1177 11.4699 50.1177ZM39.0084 13.9059C38.4776 13.9615 37.9729 14.0023 37.4683 14.0728C36.3207 14.2322 35.1806 14.4806 34.0255 14.5622C31.921 14.7142 29.8089 14.6474 27.7007 14.5918C27.2218 14.6102 26.7422 14.5816 26.269 14.5066C22.9047 13.6946 19.518 12.8789 16.1761 12.0151C12.438 11.0548 8.67004 10.3652 4.78616 10.7842C4.16168 10.8742 3.5463 11.0181 2.94702 11.2142C2.39378 11.3737 2.16202 11.7222 2.08352 12.345C1.77326 14.7031 2.04614 17.0277 2.30407 19.3561C2.48724 20.9985 3.47409 22.044 4.86466 22.8819C6.37946 23.736 7.96371 24.4628 9.60082 25.0546C11.9184 25.9704 14.3594 26.3708 16.7892 26.8602C20.3105 27.5683 23.8915 27.8798 27.4353 28.1912C27.5884 28.2046 27.7427 28.2009 27.895 28.1801C29.0912 27.9836 30.2986 27.8464 31.4724 27.5609C32.9003 27.2161 34.4105 26.9492 35.2703 25.5477C35.7076 24.8173 36.1151 24.1017 36.5076 23.3602C37.6701 21.1616 38.1897 18.7554 38.7916 16.3715C38.986 15.5929 39.2514 14.8588 39.0084 13.9059Z" fill="#72D1D1"/>
<path d="M49.3442 17.4652C49.7814 17.3181 50.2322 17.2137 50.6899 17.1538C52.4925 17.0684 54.2561 16.6033 55.8634 15.7894C57.7885 14.9033 59.695 13.9615 61.5603 12.9568C64.7152 11.2624 68.0795 10.3133 71.6045 9.72749C73.6306 9.39011 75.6192 9.50875 77.7724 9.4828C77.9705 10.5728 78.1462 11.5887 78.3293 12.6083C78.3234 12.8557 78.3321 13.1033 78.3555 13.3498C78.7779 14.7587 78.2546 15.845 77.1631 16.6866C76.4182 17.2986 75.6144 17.8363 74.7632 18.292C73.0624 19.1447 71.3204 19.9196 69.571 20.6685C67.2422 21.6622 64.9096 22.6632 62.5359 23.5419C60.7117 24.2167 58.8464 24.8729 56.8428 24.6875C56.2656 24.6529 55.6989 24.5187 55.1681 24.2908C53.1781 23.384 51.559 21.8318 50.5778 19.8899C50.2189 19.1336 49.8152 18.3921 49.3442 17.4652Z" fill="#72D1D1"/>
<path d="M4.48711 13.6353C5.87395 13.5574 7.07761 13.0643 8.3224 13.5537C11.1708 13.4981 13.8323 14.4621 16.5873 14.9626C18.1872 15.2629 19.7198 15.9228 21.3197 16.2232C23.5962 16.6569 25.8765 17.2057 28.2277 17.1056C30.1865 17.024 32.1452 16.9165 34.1077 16.8349C34.6348 16.8127 35.1619 16.8349 35.6815 16.8349C35.6179 19.6897 34.2161 21.9254 32.5377 24.035C32.1475 24.539 31.6462 24.9477 31.0721 25.2298C30.498 25.5119 29.8665 25.66 29.2258 25.6626C26.7325 25.7765 24.2341 25.7145 21.7496 25.4772C19.9078 25.3213 18.0751 25.0739 16.2584 24.7357C14.5687 24.365 12.8679 23.9942 11.2194 23.4603C9.86876 23.0096 8.55107 22.467 7.27573 21.8364C5.45902 20.9651 4.43104 19.5526 4.49459 17.4615C4.52076 16.238 4.48711 15.0256 4.48711 13.6353Z" fill="#72D1D1"/>
</svg>
