<svg width="60" height="60" viewBox="0 0 60 60" fill="none" xmlns="http://www.w3.org/2000/svg">
<path d="M58.9636 25.2384C60.3589 28.0088 60.0224 30.8254 59.7804 33.5612C59.2774 39.1751 58.593 44.7736 57.9729 50.3759C57.8405 51.5709 57.6401 52.7621 57.5153 53.9609C57.1372 57.3731 54.7398 59.8323 51.2836 59.9283C47.4077 60.0321 43.5204 60.0436 39.6521 59.8246C29.6919 59.2674 19.728 58.7333 9.77917 57.8611C0.091279 57.008 1.92903 56.6622 0.681174 49.1386C-0.249045 43.5286 -0.116697 37.7995 0.424041 32.1088C0.620672 30.0415 0.424041 27.9281 0.737895 25.8801C0.900269 24.6663 1.42867 23.5333 2.25045 22.637C6.64063 18.3488 11.1443 14.1836 15.6441 10.0222C19.8303 6.219 24.5445 3.06253 29.6352 0.654208C31.4919 -0.252617 33.2767 -0.314097 34.914 1.09225C36.9257 2.82137 38.9941 4.49669 40.8508 6.38335C46.1447 11.7628 51.3554 17.2499 56.5927 22.6947C56.812 22.9252 57.0048 23.1788 57.3716 23.6092C51.8054 25.7456 46.3489 27.7783 40.9529 29.9339C38.3897 30.9385 35.8861 32.0932 33.4544 33.3921C30.3461 35.079 30.1457 37.0694 32.0137 40.201C32.5142 40.9819 33.1391 41.6728 33.8628 42.2452C39.1844 46.6154 44.5212 50.9779 49.8731 55.3327C50.5598 55.9419 51.2932 56.4944 52.0663 56.985C52.3878 57.1656 52.9323 56.9389 53.3785 56.8966C53.3218 56.4086 53.4428 55.7439 53.1743 55.4672C52.331 54.6334 51.329 53.9686 50.4101 53.2078C45.275 48.9452 40.1424 44.6801 35.0123 40.4124L34.8913 40.3048C32.1309 37.811 32.1725 36.2433 35.5152 34.6986C40.363 32.4546 45.3468 30.5487 50.3193 28.5506C53.1667 27.3979 56.0519 26.3489 58.9636 25.2384ZM23.464 18.6178C21.7586 16.2624 19.5956 15.198 16.8125 15.49C13.0047 15.8743 10.2518 20.0357 11.7493 23.3172C12.0329 23.9396 13.0728 24.7466 13.5492 24.6236C14.6458 24.3354 14.1126 23.371 13.8328 22.5909C13.6412 22.0623 13.5705 21.4964 13.6261 20.9359C13.6816 20.3755 13.862 19.8352 14.1535 19.3561C14.445 18.877 14.84 18.4715 15.3086 18.1705C15.7771 17.8695 16.307 17.6808 16.8579 17.6188C19.5729 17.2806 21.146 18.8752 22.5035 20.9463C22.8817 21.5112 23.5547 21.8647 24.0917 22.3143C24.5501 21.7287 24.9634 21.1083 25.3282 20.4584C25.8727 19.2826 26.1412 17.9454 26.8105 16.8618C28.255 14.5256 30.4406 13.6648 32.4259 14.4141C34.8308 15.321 36.1543 17.5534 35.9463 20.2432C35.8631 21.3306 35.5342 21.6265 34.4035 21.3229C33.08 20.9656 31.6318 20.6697 30.3007 20.8426C27.5743 21.1923 25.3358 23.6784 24.9576 26.3181C24.6324 28.5583 26.7387 32.7889 28.739 33.6842C28.9743 33.7645 29.2253 33.7854 29.4703 33.7453C29.7154 33.7051 29.9472 33.605 30.1457 33.4536C30.2733 33.2404 30.3479 32.9989 30.363 32.7498C30.3782 32.5008 30.3334 32.2518 30.2327 32.0242C29.5907 31.0122 28.8939 30.0373 28.1453 29.1039C27.0865 27.6707 26.9202 26.1644 27.9714 24.7005C29.0226 23.2365 30.5881 22.2105 32.3049 22.9867C34.4344 23.9778 36.439 25.2253 38.2757 26.7024C39.739 27.8551 39.9319 27.9742 41.1571 26.4834C42.0051 25.4303 42.9867 24.4961 44.0763 23.7052C45.5888 22.6255 48.0505 22.9022 49.3702 24.0895C49.8656 24.5429 50.395 25.4728 50.9924 24.5314C51.276 24.0818 51.0529 22.9099 50.6408 22.4641C49.0375 20.7196 45.4792 20.2509 43.4297 21.4997C42.0646 22.3335 40.8508 23.4209 39.5046 24.4545L37.3908 22.8753C37.8193 21.9693 38.0673 20.9862 38.1204 19.9825C38.1736 18.9788 38.0309 17.9743 37.7005 17.0268C37.3701 16.0794 36.8587 15.2077 36.1955 14.4619C35.5323 13.7161 34.7305 13.1109 33.8363 12.6812C30.1306 10.979 27.2605 12.5467 23.464 18.6178ZM28.8411 36.566C28.6707 36.0445 28.4556 35.5392 28.1983 35.0559C26.7954 32.7505 24.5152 31.5977 22.1481 30.5833C16.6802 28.2778 11.1821 26.0107 5.70663 23.736C4.95035 23.4209 4.07307 23.0059 3.72897 24.1971C3.42267 25.2499 4.02013 25.7033 5.01842 26.0338C11.8249 28.2701 18.5595 30.7754 24.8782 34.2682C27.3928 35.6554 27.6084 37.4536 25.3547 39.2212C22.6699 41.3307 19.8906 43.3134 17.1226 45.3115C13.1749 48.1703 9.18172 50.9715 5.26421 53.8649C4.88607 54.1569 4.82179 54.9292 4.61381 55.4749C5.17546 55.5095 5.73865 55.5095 6.3003 55.4749C6.53475 55.448 6.74273 55.1752 6.96583 55.0215C9.6922 53.1579 12.4526 51.3404 15.1374 49.4191C18.9692 46.6782 22.767 43.8936 26.5307 41.0656C27.8844 40.0588 28.7012 38.6371 28.8411 36.566Z" fill="#EB4C7D"/>
</svg>
