<svg width="218" height="207" viewBox="0 0 218 207" fill="none" xmlns="http://www.w3.org/2000/svg">
<path d="M47.4482 162.89C51.3267 154.279 54.9591 145.816 58.9459 137.531C60.4826 134.53 62.3838 131.73 64.6061 129.197C67.3131 125.938 70.6798 123.647 75.2572 124.941C79.8346 126.235 82.4038 129.79 83.4867 134.263C85.8966 144.436 85.9404 155.028 83.6146 165.22C81.2816 175.925 78.486 186.511 75.139 196.909C74.0267 200.355 70.7191 203.15 68.14 205.994C67.4805 206.734 65.7381 206.981 64.5962 206.754C48.3735 203.979 32.387 200.276 17.9165 192.06C11.3999 188.367 5.75931 183.41 2.60927 176.261C-1.14126 167.778 -1.3972 159.473 5.50337 152.403C11.6755 146.113 19.6884 146.853 26.7662 149.687C33.2631 152.284 38.9431 156.926 44.938 160.727C45.8378 161.371 46.678 162.095 47.4482 162.89Z" fill="#72D1D1"/>
<path d="M184.918 19.1941C191.627 16.728 198.356 13.4407 205.466 11.8558C214.608 9.80229 220.243 16.7384 216.988 25.6234C210.855 42.3899 199.856 55.0817 183.88 63.2811C180.753 64.8967 177.747 66.7183 174.552 68.1575C171.523 69.465 169.216 69.3868 167.456 65.6229C161.942 53.8308 155.509 42.4313 150.457 30.4497C148.265 25.25 147.864 18.9752 147.918 13.1913C147.972 7.40741 151.619 3.00174 156.961 0.954839C163.08 -1.39562 168.941 0.836554 173.303 4.99658C177.882 9.35065 181.405 14.8054 184.918 19.1941Z" fill="#E84376"/>
</svg>
