<svg width="60" height="60" viewBox="0 0 60 60" fill="none" xmlns="http://www.w3.org/2000/svg">
<path d="M14.3779 11.6107C15.5531 9.00139 16.6538 6.43699 17.8619 3.92646C18.3276 3.01686 18.9037 2.16858 19.5771 1.40097C20.3974 0.413509 21.4176 -0.280703 22.8046 0.111287C24.1917 0.503278 24.9702 1.5805 25.2983 2.93601C26.0286 6.01855 26.0419 9.22834 25.3371 12.3168C24.6302 15.5605 23.783 18.7682 22.7688 21.9191C22.4318 22.9634 21.4295 23.8102 20.648 24.672C20.4481 24.8964 19.9201 24.9713 19.5741 24.9024C14.6583 24.0616 9.814 22.9395 5.42911 20.4499C3.45441 19.3308 1.7452 17.8287 0.790666 15.6622C-0.345826 13.0919 -0.423382 10.5753 1.66764 8.43285C3.53794 6.52676 5.96603 6.75119 8.11075 7.60997C10.0795 8.39695 11.8006 9.80332 13.6172 10.9554C13.8899 11.1504 14.1445 11.3697 14.3779 11.6107Z" fill="#E84376"/>
<path d="M48.3505 26.7846C49.4572 24.6122 50.5042 22.5265 51.581 20.4588C52.0163 19.5826 52.5034 18.7333 53.0397 17.9154C53.8988 16.6646 55.1277 15.9824 56.652 16.2158C58.1763 16.4492 58.9757 17.7269 59.5365 19.0225C60.5417 21.3416 59.7155 23.5589 58.9071 25.7193C57.01 30.8062 53.9614 35.2288 50.9845 39.6933C50.6604 40.1956 50.2867 40.6638 49.8688 41.0907C48.7144 42.2218 47.39 42.1799 46.4116 40.8932C43.5838 37.1768 40.6307 33.5352 38.0595 29.6422C36.1862 26.8025 35.5926 23.3973 35.4524 19.998C35.3659 17.9034 37.0632 16.6856 39.0319 17.3528C42.4772 18.5079 44.7919 21.0304 46.7219 23.9658C47.3155 24.8366 47.7868 25.7911 48.3505 26.7846Z" fill="#E84376"/>
<path d="M19.6575 44.7714C21.0446 43.1077 22.3123 41.2256 23.938 39.7324C26.0261 37.8084 28.5556 38.7749 29.0478 41.5996C29.9784 46.9289 29.0149 51.926 26.0648 56.4982C25.4891 57.3959 24.9761 58.3295 24.3556 59.1913C23.759 59.9932 23.1416 60.3224 22.1095 59.6013C18.876 57.3421 15.4606 55.3253 12.3195 52.9464C10.9563 51.9141 9.90039 50.3281 9.03832 48.8021C8.17626 47.276 8.4656 45.5674 9.55735 44.2209C10.8072 42.6768 12.6835 42.3746 14.4583 42.8055C16.3196 43.2544 18.0706 44.152 19.6575 44.7714Z" fill="#E84376"/>
</svg>
