<svg width="62" height="60" viewBox="0 0 62 60" fill="none" xmlns="http://www.w3.org/2000/svg">
<path d="M39.3216 58.1015C38.5627 55.3237 39.8699 53.9369 41.7561 52.8584C44.8618 51.0975 47.4586 51.0138 51.968 52.6559C53.2839 48.9624 54.6525 45.2732 55.9641 41.5665C57.3941 37.5428 58.7993 33.5103 60.1796 29.469C60.4516 28.681 60.7279 28.0119 62 27.8006C61.9096 28.5055 61.7748 29.2039 61.5964 29.8917C59.0932 37.2288 56.5738 44.5659 54.0384 51.9031C53.7138 52.8408 53.1392 53.7741 53.0822 54.7073C52.9944 56.4683 52.0075 57.5072 50.6696 58.2292C47.6911 59.8404 44.5679 60.6636 41.221 59.3429C40.8537 59.2164 40.5008 59.0511 40.1682 58.8499C39.8662 58.6239 39.5831 58.3736 39.3216 58.1015Z" fill="#72D1D1"/>
<path d="M32.1718 27.9416L26.1885 6.68321L5.10227 22.581C7.03831 30.4642 8.95245 38.2423 10.8447 45.9153L12.7632 47.4569C14.362 51.6788 11.4404 58.5285 3.94152 60L1.6025 59.3474L0.025629 57.3985C-0.320406 52.1431 2.84647 48.0526 8.9875 45.8934C8.35237 40.9489 6.73608 36.1664 5.63665 31.2788C4.55912 26.4613 3.27573 21.7095 1.97919 16.5285L23.8057 0H25.4044C25.7323 0.477338 26.0084 0.988252 26.2279 1.52409C27.3011 5.22044 28.3173 8.93869 29.3729 12.6438C30.687 17.2073 31.9309 21.7796 33.3151 26.3124C33.7049 27.5912 34.4583 28.7518 35.3562 30.6088C35.7943 35.3299 33.1661 39.3066 28.1289 40.6818C27.4537 40.853 26.7575 40.9267 26.0615 40.9007C23.5691 40.8438 22.2376 39.0263 22.9953 36.6482C24.143 33.0175 26.6484 30.5737 30.0036 28.9401C30.5336 28.6861 31.1075 28.5022 31.6506 28.292C31.8363 28.194 32.011 28.0766 32.1718 27.9416Z" fill="#72D1D1"/>
</svg>
