<svg width="300" height="308" viewBox="0 0 300 308" fill="none" xmlns="http://www.w3.org/2000/svg">
<path d="M206.9 300.158C203.785 288.684 209.151 282.956 216.895 278.501C229.644 271.228 240.305 270.883 258.816 277.665C264.219 262.409 269.837 247.171 275.221 231.86C281.092 215.24 286.86 198.584 292.527 181.892C293.643 178.637 294.778 175.873 300 175C299.629 177.911 299.075 180.796 298.343 183.637C288.067 213.943 277.725 244.249 267.316 274.556C265.984 278.429 263.625 282.284 263.39 286.139C263.03 293.412 258.979 297.703 253.486 300.686C241.259 307.341 228.438 310.741 214.698 305.286C213.19 304.763 211.741 304.081 210.376 303.249C209.136 302.316 207.974 301.282 206.9 300.158Z" fill="#EB4C7D"/>
<path d="M104.503 90.3445L85.0674 21.6091L16.5736 73.012C22.8624 98.501 29.08 123.65 35.2266 148.46L41.4584 153.444C46.6517 167.095 37.1616 189.242 12.8031 194L5.20535 191.89L0.0832502 185.589C-1.04077 168.596 9.24612 155.37 29.1939 148.389C27.1308 132.401 21.8806 116.938 18.3094 101.135C14.8093 85.5583 10.6405 70.194 6.42896 53.442L77.3274 0H82.5206C83.5856 1.54339 84.4823 3.19535 85.1955 4.92788C88.6814 16.8794 91.9823 28.9018 95.4112 40.8816C99.6796 55.6369 103.72 70.4206 108.216 85.0768C109.483 89.2117 111.93 92.9642 114.847 98.9683C116.27 114.233 107.733 127.091 91.3705 131.538C89.1773 132.091 86.9158 132.33 84.6548 132.246C76.5591 132.062 72.2337 126.185 74.6952 118.496C78.4229 106.757 86.5614 98.855 97.4601 93.5731C99.1817 92.7518 101.046 92.1571 102.81 91.4774C103.413 91.1608 103.981 90.781 104.503 90.3445Z" fill="#72D1D1"/>
</svg>
