<svg width="77" height="51" viewBox="0 0 77 51" fill="none" xmlns="http://www.w3.org/2000/svg">
<path d="M5.125 50.3906V46.2891C11.7005 42.5781 15.9974 39.2253 18.0156 36.2305C20.099 33.1706 21.1406 29.6549 21.1406 25.6836C21.1406 23.8607 20.8151 22.4935 20.1641 21.582C19.4479 20.6706 18.6667 20.2148 17.8203 20.2148C17.1693 20.2148 16.1276 20.4753 14.6953 20.9961C13.263 21.5169 11.8307 21.7773 10.3984 21.7773C7.66406 21.7773 5.32031 20.8008 3.36719 18.8477C1.41406 16.8945 0.4375 14.5182 0.4375 11.7188C0.4375 8.59375 1.67448 5.85938 4.14844 3.51562C6.6875 1.17188 9.7474 0 13.3281 0C17.625 0 21.4987 1.85547 24.9492 5.56641C28.4648 9.27734 30.2227 13.9648 30.2227 19.6289C30.2227 26.4648 28.0091 32.7148 23.582 38.3789C19.2201 44.043 13.0677 48.0469 5.125 50.3906ZM51.707 50.3906V46.2891C57.3711 43.3594 61.4401 40.2669 63.9141 37.0117C66.4531 33.6914 67.7227 30.1107 67.7227 26.2695C67.7227 23.9909 67.3971 22.3958 66.7461 21.4844C66.0951 20.638 65.3789 20.2148 64.5977 20.2148C63.7513 20.2148 62.612 20.4753 61.1797 20.9961C59.6823 21.5169 58.3802 21.7773 57.2734 21.7773C54.6042 21.7773 52.2604 20.7682 50.2422 18.75C48.2891 16.7318 47.3125 14.3229 47.3125 11.5234C47.3125 8.39844 48.5169 5.69661 50.9258 3.41797C53.3346 1.13932 56.2969 0 59.8125 0C64.2396 0 68.2109 1.92057 71.7266 5.76172C75.2422 9.53776 77 14.1927 77 19.7266C77 26.237 74.819 32.3242 70.457 37.9883C66.1602 43.5872 59.9102 47.7214 51.707 50.3906Z" fill="#EB4C7D"/>
</svg>
