<svg width="60" height="39" viewBox="0 0 60 39" fill="none" xmlns="http://www.w3.org/2000/svg">
<path d="M3.67347 39V35.8256C8.82653 32.9535 12.1939 30.3585 13.7755 28.0407C15.4082 25.6725 16.2245 22.9516 16.2245 19.8779C16.2245 18.4671 15.9694 17.4089 15.4592 16.7035C14.898 15.9981 14.2857 15.6453 13.6224 15.6453C13.1122 15.6453 12.2959 15.8469 11.1735 16.25C10.051 16.6531 8.92857 16.8547 7.80612 16.8547C5.66327 16.8547 3.82653 16.0988 2.29592 14.5872C0.765306 13.0756 0 11.2364 0 9.06977C0 6.65116 0.969388 4.53488 2.90816 2.72093C4.89796 0.906977 7.29592 0 10.102 0C13.4694 0 16.5051 1.43605 19.2092 4.30814C21.9643 7.18023 23.3418 10.8081 23.3418 15.1919C23.3418 20.4826 21.6071 25.3198 18.1378 29.7035C14.7194 34.0872 9.89796 37.186 3.67347 39ZM40.1786 39V35.8256C44.6173 33.5581 47.8061 31.1647 49.7449 28.6453C51.7347 26.0756 52.7296 23.3043 52.7296 20.3314C52.7296 18.5678 52.4745 17.3333 51.9643 16.6279C51.4541 15.9729 50.8929 15.6453 50.2806 15.6453C49.6173 15.6453 48.7245 15.8469 47.602 16.25C46.4286 16.6531 45.4082 16.8547 44.5408 16.8547C42.449 16.8547 40.6122 16.0736 39.0306 14.5116C37.5 12.9496 36.7347 11.0853 36.7347 8.9186C36.7347 6.5 37.6786 4.40891 39.5663 2.64535C41.4541 0.881783 43.7755 0 46.5306 0C50 0 53.1122 1.48643 55.8673 4.4593C58.6224 7.38178 60 10.9845 60 15.2674C60 20.3062 58.2908 25.0174 54.8724 29.4012C51.5051 33.7345 46.6071 36.9341 40.1786 39Z" fill="#113746"/>
</svg>
