<svg width="336" height="64" viewBox="0 0 336 64" fill="none" xmlns="http://www.w3.org/2000/svg">
<path fill-rule="evenodd" clip-rule="evenodd" d="M99.8619 1.45583C100.106 1.23978 100.62 1.15891 101.107 1.23996C101.567 1.3211 102.243 1.75338 102.676 2.2127C103.109 2.69908 103.407 3.32047 103.407 3.75284C103.407 4.18522 103.245 5.05018 103.028 5.72577C102.839 6.40153 101.513 9.91456 100.078 13.5626C98.6707 17.2108 96.5866 22.6696 95.4769 25.7232C94.3401 28.777 91.8502 35.7491 89.9015 41.2618C87.953 45.8558 87.2068 46.7578 86.7196 48.028C86.2324 49.298 85.6641 50.4868 85.4747 50.649C85.2852 50.8382 84.8254 51.0005 84.4465 51.0005C84.0947 51.0005 83.5532 50.8924 83.2555 50.7303C82.9578 50.5682 82.7141 50.1896 82.7141 49.8383C82.7144 49.5133 83.5535 46.4331 84.2991 44.8018C85.3546 41.3969 86.085 39.7215 87.1135 36.5327C88.142 33.3439 89.7934 28.3713 90.7949 25.5068C91.7692 22.6694 92.5811 20.1021 92.5811 19.8319C92.554 19.4267 92.4996 19.4268 92.0937 19.9132C91.8496 20.2382 89.035 24.859 85.8686 30.1821C82.7019 35.5328 79.3998 40.8835 78.5608 42.0725C77.7217 43.2345 76.4767 44.5857 75.8542 45.0451C74.907 45.6936 74.3926 45.8558 73.283 45.8558C72.444 45.8558 71.4697 45.6396 70.8201 45.3154C70.2247 44.9911 69.5753 44.3695 69.2776 43.8291C68.9799 43.3156 68.7632 42.3696 68.7632 41.721C68.7632 41.0995 68.6817 40.5862 68.5734 40.5862C68.438 40.5596 68.032 40.9918 67.6262 41.5321C67.1931 42.0455 66.2999 42.802 65.5962 43.2073C64.649 43.7207 63.9454 43.9098 62.9441 43.9098C62.1592 43.9098 61.1307 43.6667 60.5082 43.3424C59.9128 43.0452 59.2087 42.5861 58.9651 42.3158C58.7216 42.0186 58.3428 41.3699 58.0992 40.8565C57.8827 40.343 57.6119 39.1538 57.4765 38.2079C57.3683 37.2894 57.152 36.5331 56.9897 36.5327C56.8543 36.5327 55.9882 37.6675 55.0951 39.0186C54.2019 40.3969 52.9566 42.2074 52.334 43.0722C51.7115 43.9369 50.7913 44.883 50.3041 45.1802C49.7628 45.5045 48.9237 45.7207 48.1389 45.7207C47.4081 45.7207 46.3796 45.5044 45.8383 45.2071C45.27 44.9369 44.5664 44.3696 44.2957 43.9373C43.8627 43.2887 43.7813 42.721 43.8084 40.5862C43.8084 38.7216 44.052 37.1812 44.6203 34.9113C45.0534 33.2088 45.8657 30.5875 46.434 29.1012C47.0024 27.615 47.8682 25.5341 48.4095 24.5072C48.9238 23.4533 49.8444 21.8318 50.4669 20.859C51.1165 19.8862 52.1719 18.562 52.8214 17.8864C53.4981 17.2108 54.6349 16.373 55.3657 16.0217C56.5295 15.4542 56.9626 15.3999 58.3429 15.535C59.3173 15.6431 60.4 15.9678 61.0495 16.3732C61.645 16.7245 62.5379 17.4542 63.025 17.9946C63.4851 18.535 64.0266 19.4806 64.189 20.1021C64.3514 20.7507 64.4326 21.8589 64.3244 22.6155C64.2431 23.3452 63.9997 24.5072 63.7561 25.1828C63.5396 25.8584 63.3501 26.9934 63.3501 27.75C63.3501 28.4797 63.1064 30.0741 62.8357 31.2631C62.538 32.4521 62.1863 34.3978 61.9968 35.5869C61.8074 36.938 61.7801 38.2893 61.9154 39.2081C62.0237 40.0186 62.2942 40.7483 62.4837 40.8295C62.6731 40.9106 63.1334 40.6943 63.5393 40.316C63.9183 39.9377 65.1095 38.4784 66.165 37.0732C67.2206 35.668 68.6547 33.5331 69.3585 32.344C70.0621 31.155 71.0364 29.1552 71.5507 27.8851C72.0649 26.615 73.0125 24.5612 73.635 23.2911C74.2846 22.021 75.2319 20.3185 75.8003 19.5078C76.3416 18.6971 77.2076 17.6701 77.7219 17.2377C78.2361 16.8053 79.1835 16.2107 79.8602 15.9135C80.6991 15.5622 81.4571 15.427 82.2961 15.5081C82.9727 15.5622 84.1096 15.9136 84.8674 16.2919C85.7604 16.7243 86.4911 17.3728 87.0865 18.2105C87.5735 18.9398 88.0605 19.5073 88.1961 19.5078C88.3044 19.5078 89.4414 17.8591 90.7134 15.8053C92.0126 13.7514 94.4757 9.75221 96.235 6.94183C97.9672 4.10436 99.6183 1.645 99.8619 1.45583ZM83.162 20.5888C83.0265 20.589 82.6204 20.9129 82.2416 21.3451C81.8627 21.7505 81.0241 22.8047 80.3745 23.6965C79.7249 24.5882 78.5065 26.7231 77.6404 28.4256C76.8015 30.128 75.6919 32.8302 75.1506 34.4515C74.6093 36.0459 74.095 38.019 73.9596 38.8297C73.8514 39.7754 73.8787 40.3159 74.041 40.3429C74.1765 40.3427 74.7717 39.8564 75.3129 39.235C75.8813 38.6405 78.2362 35.2896 80.5368 31.8036C82.8374 28.3175 84.7319 25.2365 84.759 24.9933C84.7589 24.7228 84.5696 23.9124 84.2991 23.156C84.0555 22.4264 83.7307 21.5343 83.6224 21.21C83.4871 20.8587 83.2703 20.5888 83.162 20.5888ZM59.1549 20.0483C58.9113 20.0483 58.2345 20.5078 57.5849 21.1023C56.9623 21.6699 55.7716 23.102 54.9597 24.2639C54.1478 25.4529 52.9299 27.6149 52.2262 29.1012C51.5225 30.5875 50.6291 32.7224 50.2502 33.8303C49.8984 34.9383 49.438 36.6136 49.2215 37.5323C49.0321 38.4507 48.9781 39.2883 49.0862 39.424C49.2215 39.5321 49.6277 39.289 49.9795 38.8297C50.3585 38.3973 52.3612 35.5328 54.4723 32.4791C56.5835 29.4255 58.5863 26.6147 58.9382 26.2093C59.5065 25.5338 59.5609 25.1826 59.5609 22.7506C59.5609 20.5078 59.4796 20.0483 59.1549 20.0483Z" fill="#113746"/>
<path d="M100.674 21.3995C100.918 21.2374 101.54 21.1833 102.054 21.2643C102.568 21.3184 103.299 21.6154 103.678 21.8856C104.057 22.1558 104.49 22.7236 104.652 23.156C104.869 23.6965 104.869 24.3182 104.625 25.5612C104.409 26.5343 102.947 30.0472 101.025 34.2357C99.2391 38.0999 97.1551 42.5586 96.3973 44.1531C95.5853 45.8556 94.8272 47.1259 94.5566 47.207C94.2859 47.288 93.7719 47.288 93.3931 47.207C93.0142 47.1259 92.4186 46.7745 91.3631 45.7207L92.0128 43.6127C92.3647 42.4775 93.3657 39.2889 94.2859 36.5327C95.1791 33.7763 96.4244 30.1821 97.0469 28.5607C97.6694 26.9123 98.6438 24.723 99.2122 23.6421C99.7805 22.5883 100.43 21.5616 100.674 21.3995Z" fill="#113746"/>
<path d="M105.6 10.3736C106.114 10.3737 107.034 10.6437 107.63 10.9679C108.225 11.3192 108.821 11.887 108.956 12.2384C109.091 12.6167 109.091 13.4004 108.983 13.9949C108.847 14.6705 108.468 15.3732 107.927 15.8596C107.169 16.5892 106.953 16.6433 105.68 16.5352C104.598 16.4541 104.111 16.2648 103.461 15.6163C102.893 15.1029 102.622 14.5352 102.622 14.0487C102.622 13.6433 102.92 12.7246 103.299 11.995C103.678 11.2655 104.138 10.6168 104.3 10.5357C104.49 10.4546 105.085 10.3736 105.6 10.3736Z" fill="#113746"/>
<path fill-rule="evenodd" clip-rule="evenodd" d="M155.454 42.0456C155.86 41.8298 156.184 41.6945 156.185 41.721L157.972 32.8845C156.862 34.5329 155.292 36.5867 154.48 37.4785C153.154 38.9647 152.964 39.0728 152.559 38.6946C152.18 38.3703 152.099 37.8027 152.126 35.5869C152.126 34.1006 152.369 31.182 152.667 29.1012C152.965 27.0204 153.208 24.561 153.208 23.6152C153.208 22.6695 153.046 21.5887 152.802 21.1292C152.586 20.6698 152.071 20.0752 151.665 19.805C151.232 19.5078 150.556 19.1837 150.096 19.0755C149.581 18.9675 148.986 19.0482 148.472 19.3183C148.039 19.5345 146.577 20.8588 145.224 22.264C143.898 23.6692 141.624 26.2904 140.217 28.101C138.809 29.8846 137.564 31.3712 137.456 31.3982C137.32 31.398 137.239 31.2089 137.239 30.9928C137.239 30.7767 138.241 28.3173 139.432 25.5068C140.65 22.7236 141.867 19.7782 142.165 18.9673C142.436 18.1567 142.653 17.0487 142.653 16.5352C142.653 15.8596 142.436 15.373 141.922 14.8325C141.434 14.3732 140.758 14.0222 140.081 13.9411C139.242 13.8059 138.836 13.914 138.268 14.3464C137.835 14.6709 137.023 15.9137 136.427 17.1295C135.859 18.3726 134.506 21.7508 133.45 24.6423C132.368 27.5338 131.231 30.4524 130.879 31.128C130.554 31.8036 129.526 33.452 128.632 34.7761C127.739 36.1003 126.305 38.0188 125.493 39.0186C124.654 40.0453 123.788 40.8561 123.571 40.8565C123.355 40.8565 123.057 40.6132 122.895 40.316C122.759 40.0187 122.624 38.8835 122.624 37.8026C122.624 36.6945 122.976 34.2354 123.436 31.9925C123.896 29.8847 124.167 27.8849 124.086 27.5336C124.005 27.2093 124.194 26.1555 124.519 25.1828C124.952 23.8586 125.087 22.9395 125.005 21.4802C124.951 19.859 124.789 19.3723 124.086 18.3725C123.544 17.5888 122.732 16.9133 121.595 16.3188C120.377 15.6973 119.565 15.4543 118.645 15.4543C117.914 15.4543 116.832 15.6975 116.209 15.9947C115.56 16.292 114.477 17.0485 113.801 17.67C113.124 18.3186 112.014 19.6159 111.392 20.5888C110.742 21.5616 109.659 23.5073 108.983 24.9125C108.333 26.3178 107.278 28.9391 106.655 30.7226C106.06 32.5061 105.329 35.2083 105.031 36.7216C104.734 38.2619 104.49 40.2076 104.49 41.0454C104.49 41.9912 104.679 42.9644 104.977 43.5319C105.22 44.0453 105.789 44.7209 106.195 45.0182C106.709 45.3965 107.521 45.6127 108.631 45.6938C110.309 45.8019 110.309 45.8015 111.662 44.5854C112.42 43.9096 114.044 41.802 115.316 39.9375C116.588 38.0465 117.778 36.5067 117.968 36.5327C118.158 36.5327 118.293 36.9109 118.293 37.5323C118.293 38.0998 118.483 39.2078 118.699 39.9645C118.916 40.7751 119.484 41.8292 119.998 42.3697C120.594 43.0182 121.298 43.4507 122.218 43.6939C123.003 43.8831 124.031 43.9641 124.654 43.856C125.276 43.7749 126.224 43.3156 126.819 42.8832L127.875 42.0725C127.577 43.7208 127.631 44.3694 127.847 44.8018C128.01 45.1801 128.714 45.7475 129.39 46.0448C130.365 46.5042 130.798 46.5585 131.556 46.3694C132.395 46.1532 132.692 45.8016 134.181 43.2886C135.101 41.7212 136.59 39.235 137.51 37.7487C138.43 36.2625 139.973 33.9113 140.974 32.5061C141.976 31.1008 143.762 28.8037 144.953 27.3985C146.144 25.9664 147.335 24.6964 147.578 24.5341C147.822 24.372 148.093 24.291 148.174 24.3721C148.255 24.4547 148.119 25.8324 147.876 27.4798C147.632 29.1012 147.443 32.1549 147.416 34.2357C147.416 37.6135 147.47 38.1541 148.011 39.3702C148.363 40.0996 148.904 40.9911 149.229 41.3426C149.554 41.6939 150.502 42.1534 151.314 42.3966C152.234 42.6398 153.154 42.7211 153.75 42.613C154.264 42.5049 155.021 42.2617 155.454 42.0456ZM117.968 21.5884C118.807 20.7237 119.674 20.0751 119.89 20.1021C120.242 20.1833 120.323 20.6704 120.459 25.1828L119.159 27.0201C118.429 28.0199 116.399 30.9118 114.64 33.425C112.908 35.965 111.148 38.3427 110.742 38.7753C110.363 39.1807 109.957 39.5053 109.822 39.5053C109.714 39.5048 109.714 38.9912 109.795 38.37C109.876 37.7212 110.417 35.8028 110.986 34.1006C111.527 32.3981 112.447 30.0741 113.016 28.9661C113.584 27.8582 114.585 26.1016 115.262 25.0476C115.938 24.0208 117.156 22.4532 117.968 21.5884Z" fill="#113746"/>
<path d="M163.699 6.60921C164.263 5.18654 164.856 3.81085 165.057 3.56774L165.055 3.54306C165.254 3.27528 165.732 3.05587 166.276 3.00455C166.77 2.95791 167.562 3.15709 168.06 3.40893C168.557 3.66076 169.16 4.22646 169.372 4.62968C169.675 5.19866 169.722 5.69228 169.622 6.47367C169.554 7.07763 169.491 7.73098 169.51 7.92842C169.54 8.24925 169.651 8.36615 170.364 8.32655C174.209 8.11312 175.682 8.12359 176.1 8.33307C176.546 8.56489 176.727 8.89643 176.786 9.51341C176.84 10.0893 176.726 10.4652 176.444 10.6413C176.231 10.761 173.553 11.188 170.495 11.5512C169.298 11.7289 169.001 12.0352 168.666 12.1912C168.166 12.4376 167.78 13.3705 166.396 17.7092C165.471 20.5853 165.042 20.7574 164.082 24.06C163.148 27.3603 161.81 32.1926 161.133 34.7962C160.457 37.3998 159.325 42.0384 158.619 45.1179C157.937 48.195 157.236 50.8009 157.097 50.9137C156.934 51.0287 156.449 51.1741 156.004 51.216C155.584 51.2557 154.902 51.1706 154.542 51.0552C154.18 50.9151 153.799 50.5775 153.723 50.3107C153.624 50.0462 153.801 48.2367 154.116 46.2897C154.43 44.3428 155.169 40.2891 155.759 37.2953C156.373 34.2992 157.48 29.14 158.267 25.8537C159.028 22.5698 159.206 22.3717 159.973 19.4109C160.944 15.7088 161.28 13.9838 161.09 13.8274C160.901 13.671 159.894 13.8406 158.069 14.3117C156.584 14.7008 154.293 15.2656 153.027 15.5843C151.76 15.903 150.071 16.2367 149.28 16.3113C148.192 16.4139 147.736 16.3325 147.33 15.9973C147.032 15.7515 146.637 15.2659 146.454 14.9097C146.293 14.5265 146.167 13.9905 146.213 13.6873C146.257 13.3595 146.593 12.9543 146.95 12.7713C147.331 12.5859 148.368 12.2141 149.314 11.9257C150.234 11.6396 152.28 11.1229 153.819 10.7785C155.36 10.4588 158.006 9.96011 162.697 9.1938L163.699 6.60921Z" fill="#113746"/>
<path d="M34.0759 3.06128C35.0996 2.86966 36.4431 2.78448 37.8079 2.84836C38.9808 2.91224 40.5162 3.10379 41.22 3.29541C41.9237 3.46577 43.0541 3.93403 43.7578 4.29599C44.4402 4.67925 45.4848 5.50992 46.0819 6.14867C46.679 6.78744 47.4469 7.89464 47.7455 8.59728C48.0653 9.29993 48.428 10.4923 48.5772 11.2588C48.7265 12.0679 48.7692 13.1752 48.6839 13.9204C48.5986 14.623 48.3424 15.8154 48.1078 16.5819C47.8732 17.3484 47.3617 18.5834 46.9778 19.3499C46.594 20.1164 45.7624 21.4578 45.1439 22.3308C44.5255 23.2038 43.1393 24.8221 42.073 25.9293C41.028 27.0152 39.2793 28.5695 38.2344 29.3573C37.1895 30.1664 35.6327 31.167 34.8223 31.6142C34.012 32.0613 32.3699 32.8278 31.197 33.3176C30.0241 33.8073 29.0429 34.2972 29.0216 34.4462C28.9793 34.5741 29.3631 34.8933 29.8746 35.1274C30.3651 35.3829 32.4126 36.5964 34.3958 37.8314C36.379 39.0663 38.8525 40.642 39.8975 41.3234C41.3049 42.2602 41.753 42.6648 41.7531 43.0268C41.7744 43.3035 41.5825 43.772 41.3266 44.0914C41.092 44.432 40.7082 44.6877 40.4736 44.6877C40.239 44.6877 38.682 44.0065 37.0186 43.1761C35.3339 42.3457 32.5831 41.0252 30.8771 40.28C29.1711 39.5135 26.7827 38.3853 25.5458 37.7465C24.3089 37.1291 23.1784 36.5967 23.0504 36.5967C22.9008 36.5976 22.2187 38.045 21.5152 39.8329C20.8328 41.6215 19.7238 44.5174 19.0627 46.2847C18.4017 48.0306 17.7406 49.6701 17.57 49.9044C17.3567 50.2024 17.0366 50.3303 16.5462 50.309C16.1623 50.2877 15.5225 50.1172 15.16 49.9256C14.7762 49.7339 14.35 49.3718 14.222 49.0951C14.0514 48.7544 14.0514 48.35 14.2433 47.5622C14.3925 46.966 15.416 43.7083 16.5249 40.3228C17.6338 36.9373 19.4467 31.742 20.5343 28.825C21.6219 25.908 23.3916 21.4366 24.4366 18.924C25.4815 16.4116 26.6547 13.7287 27.0385 12.9622C27.4224 12.1957 27.9555 11.2587 28.2327 10.8754C28.6378 10.3431 28.8939 10.1942 29.491 10.1942C29.8961 10.1942 30.5998 10.3644 31.0262 10.556C31.4527 10.7689 31.9431 11.1737 32.1137 11.4717C32.3483 11.855 32.4124 12.2594 32.3058 12.8982C32.2205 13.4092 31.7727 14.7932 31.3249 15.9855C30.8557 17.1992 29.2776 21.0318 27.8062 24.5025C26.3349 27.994 25.098 31.0599 25.0763 31.316C25.0124 31.7205 25.1191 31.7844 25.5029 31.7418C25.7588 31.7206 27.1876 31.1246 28.7017 30.4007C30.1945 29.698 32.3273 28.5056 33.4362 27.7604C34.5451 27.0151 36.1872 25.7802 37.0615 24.9924C37.9358 24.2258 39.3218 22.8417 40.1108 21.9474C40.9212 21.0531 42.073 19.5415 42.7127 18.6047C43.3525 17.6678 44.163 16.2623 44.5042 15.4532C44.8667 14.6654 45.3144 13.3878 45.5063 12.5788C45.7195 11.6846 45.7836 10.8117 45.6983 10.1942C45.5917 9.44899 45.3569 9.04448 44.6745 8.36315C44.1627 7.87343 43.2456 7.31958 42.5632 7.04278C41.8808 6.78728 40.5799 6.46779 39.6843 6.31876C38.4049 6.12715 37.5517 6.12713 35.9523 6.31876C34.8007 6.46781 32.9241 6.87253 31.7939 7.23449C30.6423 7.59646 28.9365 8.27775 27.9982 8.74616C27.0599 9.21459 25.4818 10.1517 24.4795 10.8118C23.4985 11.4718 21.8777 12.7706 20.8754 13.7074C19.8945 14.6443 18.6791 15.9857 18.1672 16.6884C17.6768 17.391 16.9728 18.5834 16.6103 19.3499C16.2478 20.1164 15.8852 21.2662 15.7785 21.905C15.6932 22.5437 15.6719 23.3529 15.7785 23.7148C15.8638 24.0768 16.1412 24.5452 16.3971 24.7794C16.6316 25.0136 16.8021 25.3969 16.7594 25.6311C16.7167 25.8653 16.5037 26.078 16.2692 26.1206C16.0346 26.1632 15.5015 25.9716 15.0963 25.6947C14.6911 25.4179 14.1364 24.8646 13.8805 24.46C13.6033 24.0555 13.2621 23.3315 13.1341 22.8631C13.0275 22.3947 12.9636 21.3301 13.0062 20.521C13.0702 19.648 13.3261 18.4982 13.646 17.753C13.9232 17.0503 14.5417 15.9005 15.0109 15.1979C15.4587 14.4952 16.5251 13.2176 17.3355 12.3446C18.1458 11.4717 19.6813 10.1088 20.7475 9.27847C21.8138 8.46936 23.5199 7.29843 24.5861 6.68097C25.6524 6.0635 27.1878 5.27551 27.9982 4.91355C28.8086 4.55158 30.1734 4.06193 30.9837 3.82772C31.7941 3.57222 33.2016 3.23161 34.0759 3.06128Z" fill="#113746"/>
<path fill-rule="evenodd" clip-rule="evenodd" d="M319.134 12.2419C319.988 12.2419 321.057 12.4556 321.671 12.7492C322.258 13.0162 323.14 13.6834 323.647 14.2706C324.155 14.8311 324.715 15.712 324.929 16.1658C325.116 16.6463 325.277 17.3941 325.277 17.8479C325.277 18.275 325.09 19.1293 324.876 19.7166C324.582 20.5174 324.288 20.8377 323.754 20.9444C323.14 21.1046 322.872 20.9711 322.285 20.2771C321.858 19.8233 321.537 19.1559 321.537 18.7822C321.537 18.4086 321.35 18.0615 321.137 17.9814C320.923 17.9013 320.095 18.168 319.347 18.5684C318.572 18.9956 316.89 20.3306 315.608 21.5852C314.299 22.8396 313.258 24.0674 313.258 24.3079C313.258 24.655 313.738 24.9487 315.074 25.3491C316.062 25.6694 317.424 26.2034 318.145 26.5504C318.839 26.8974 319.908 27.6451 320.549 28.2324C321.163 28.793 322.045 29.9674 322.525 30.8216C323.033 31.7559 323.46 33.0107 323.567 33.8649C323.701 34.906 323.621 35.787 323.273 36.9349C323.033 37.8158 322.606 38.9637 322.339 39.4709C322.072 39.9781 321.163 41.2859 320.309 42.3537C319.428 43.4481 317.878 44.9966 316.863 45.7974C315.848 46.625 314.086 47.7198 312.991 48.2537C311.361 49.0278 310.613 49.2414 308.984 49.3215C307.328 49.4016 306.741 49.2948 305.539 48.7876C304.738 48.4406 303.776 47.7732 303.402 47.3194C303.028 46.8657 302.574 46.2783 302.414 45.9846C302.227 45.7177 302.067 45.5308 302.013 45.6108C301.96 45.6909 301.078 47.4261 300.064 49.4816C299.022 51.5371 297.339 54.4736 296.324 56.0219C295.283 57.5702 293.573 59.6524 292.559 60.6935C291.517 61.7346 290.075 62.8558 289.353 63.2296C288.526 63.63 287.377 63.9233 286.415 63.9767C285.427 64.0568 284.252 63.9234 283.344 63.6832C282.543 63.4429 281.367 62.8824 280.753 62.4553C280.112 62.0015 279.311 61.1738 278.937 60.6132C278.59 60.0793 278.162 59.0117 278.029 58.291C277.895 57.5435 277.869 56.7959 277.976 56.5824C278.056 56.3689 278.349 56.1021 278.616 55.9953C278.883 55.8618 279.444 55.8618 279.952 56.0219C280.513 56.182 280.913 56.5289 281.127 57.0094C281.287 57.4098 281.555 58.1842 281.715 58.6914C281.849 59.1986 282.409 60.026 282.917 60.4798C283.451 60.9602 284.119 61.3609 284.412 61.3609C284.706 61.3609 285.267 61.2006 285.694 60.9871C286.095 60.7735 287.083 59.8924 287.938 59.0381C288.766 58.1838 290.101 56.4757 290.929 55.221C291.757 53.9664 293.199 51.3769 294.161 49.4816C295.096 47.5862 296.485 44.3294 297.233 42.2739C298.007 40.2184 299.048 37.0417 299.556 35.1997C300.063 33.3577 300.411 31.8359 300.331 31.7825C300.25 31.7558 300.064 31.7828 299.903 31.8628C299.77 31.9429 298.14 34.2385 296.324 36.9881C294.508 39.7642 292.532 42.6473 291.917 43.3949C291.276 44.2491 290.368 45.0235 289.7 45.3438C289.059 45.6374 288.312 45.8777 288.018 45.8777C287.724 45.8777 287.003 45.7444 286.415 45.5842C285.828 45.424 284.893 44.8365 284.359 44.3026C283.451 43.4218 283.371 43.2081 283.371 40.4052L282.756 40.9923C282.409 41.3127 281.608 41.8202 280.94 42.1138C280.273 42.4075 279.445 42.6743 279.071 42.6743C278.697 42.6743 277.949 42.5409 277.414 42.4074C276.854 42.2472 276.026 41.8198 275.572 41.3928C275.091 40.9923 274.477 40.1917 274.183 39.6044C273.729 38.7502 273.595 37.8958 273.515 35.1997C273.462 33.0641 273.569 30.6881 273.836 28.5791C274.076 26.7908 274.263 25.136 274.263 24.9221C274.263 24.7086 274.103 24.5482 273.916 24.5749C273.702 24.6284 272.847 25.4294 271.993 26.3903C271.138 27.3514 269.589 29.2734 268.521 30.6616C267.452 32.0497 265.877 34.2654 265.022 35.6001C264.141 36.9082 262.538 39.551 261.47 41.4731C260.375 43.3681 259.253 45.2097 258.932 45.5571C258.612 45.8774 258.078 46.2246 257.704 46.3048C257.33 46.3848 256.555 46.2514 255.968 46.0112C255.38 45.771 254.685 45.3703 254.418 45.1301C254.151 44.8631 253.938 44.3026 253.965 43.7421C253.965 43.2349 254.445 41.0726 255.006 38.937C255.594 36.8014 256.662 33.3311 257.41 31.1955C258.131 29.0599 259.333 25.6429 260.108 23.5874C260.882 21.5319 261.95 18.889 262.511 17.7144C263.046 16.5398 263.82 15.2582 264.221 14.8311C264.701 14.3507 265.182 14.1106 265.796 14.1105C266.25 14.1105 267.051 14.3508 267.532 14.6444C267.986 14.9381 268.547 15.4986 268.734 15.8723C269.001 16.4062 268.975 16.8333 268.708 17.9277C268.521 18.7018 267.292 21.7721 266.01 24.7886C264.701 27.8048 263.553 30.5273 263.473 30.8482C263.393 31.1951 263.393 31.4621 263.526 31.4624C263.633 31.4891 265.022 29.8337 266.651 27.8049C268.254 25.7761 270.604 23.0798 271.859 21.7985C273.115 20.5439 274.423 19.4229 274.797 19.3161C275.171 19.2094 275.785 19.2095 276.213 19.2895C276.613 19.3696 277.361 19.8499 277.895 20.3037C278.456 20.8376 278.964 21.6119 279.15 22.2526C279.364 23.0535 279.364 23.9611 279.124 25.8564C278.937 27.2446 278.617 29.7006 278.403 31.3289C278.189 32.9306 278.029 34.9862 278.029 35.8671C278.056 36.748 278.136 37.7625 278.216 38.1096C278.322 38.4565 278.563 38.8031 278.75 38.8567C278.91 38.8834 279.551 38.4296 280.166 37.7889C280.753 37.1749 282.115 35.4666 283.157 33.9984C284.225 32.5303 285.347 30.7684 285.667 30.1277C285.988 29.4603 286.816 27.5916 287.484 25.9899C288.125 24.3615 289.273 22.0924 289.995 20.9179C290.689 19.7433 291.944 18.0879 292.719 17.2336C293.52 16.3794 294.642 15.4454 295.229 15.1517C295.87 14.8581 296.885 14.6444 297.767 14.6444C298.746 14.6445 299.681 14.8488 300.571 15.2581C301.319 15.6051 302.307 16.2994 302.815 16.8066C303.322 17.3139 303.963 18.2484 304.257 18.9157C304.55 19.5831 304.844 20.9445 304.924 21.9857C305.031 23.5606 305.165 23.9876 305.806 24.7084C306.233 25.1888 306.687 26.0431 306.848 26.577C306.981 27.1375 307.115 27.9117 307.115 28.3122C307.115 28.7393 306.928 29.994 306.714 31.1152C306.5 32.2628 306.26 33.4106 306.18 33.6512C306.1 33.9715 306.206 34.1318 306.527 34.1319C306.767 34.1052 307.301 34.3455 307.729 34.6658C308.129 34.9594 308.45 35.413 308.45 35.6533C308.45 35.9203 308.129 36.6679 307.729 37.3353C307.355 38.0027 306.821 39.1239 306.581 39.8713C306.313 40.5921 306.02 41.8735 305.913 42.6743C305.806 43.4751 305.806 44.5427 305.886 44.9966C306.02 45.744 306.153 45.8777 306.794 45.8777C307.195 45.8777 308.183 45.5571 308.984 45.1567C309.946 44.7028 311.308 43.5819 312.857 42.007C314.192 40.6989 315.661 38.9371 316.115 38.1362C316.596 37.3353 317.291 35.9472 317.665 35.0662C318.012 34.1853 318.332 32.9571 318.332 32.3164C318.332 31.5157 318.198 31.1152 317.878 30.9551C317.611 30.8216 316.382 30.528 315.127 30.2611C313.872 30.0209 312.27 29.5403 311.522 29.2199C310.801 28.8729 309.839 28.3121 309.385 27.9383C308.931 27.5913 308.263 26.6307 307.836 25.8298C307.355 24.8689 307.115 23.9878 307.115 23.1869C307.141 22.3594 307.408 21.505 307.996 20.4105C308.477 19.5296 309.518 18.088 310.346 17.207C311.148 16.2994 312.483 15.0982 313.284 14.511C314.086 13.9237 315.394 13.1759 316.196 12.8555C317.104 12.4818 318.226 12.2419 319.134 12.2419ZM300.01 19.3693C299.77 19.1558 299.236 19.583 298.007 20.8376C297.072 21.8253 295.63 23.6674 294.829 24.9487C294.027 26.2568 292.719 28.7927 291.944 30.5813C291.196 32.3965 290.288 34.7726 289.941 35.8671C289.62 36.9348 289.433 37.8958 289.54 38.0027C289.674 38.0828 289.861 38.0828 290.021 38.0027C290.155 37.9225 292.051 35.493 294.188 32.61C296.351 29.7003 298.755 26.5506 299.529 25.5895C300.598 24.3081 300.945 23.6404 300.972 22.9998C300.972 22.5192 300.811 21.5585 300.624 20.8913C300.464 20.1972 300.171 19.5295 300.01 19.3693Z" fill="#113746"/>
<path d="M229.927 15.4453C230.381 15.4453 231.102 15.6322 231.529 15.8457C231.983 16.0593 232.571 16.5663 232.865 16.9667C233.185 17.3938 233.425 18.0614 233.399 18.5153C233.399 18.9424 233.212 19.9836 232.972 20.7844C232.731 21.5852 231.583 24.6283 230.434 27.5113C229.286 30.4204 228.405 32.876 228.484 32.9838C228.564 33.1173 228.938 32.8238 229.286 32.3967C229.659 31.9429 232.437 28.3657 235.482 24.4148C238.526 20.4646 241.33 16.9413 241.758 16.62C242.159 16.273 242.8 15.9793 243.227 15.9792C243.628 15.9792 244.349 16.2195 244.83 16.5131C245.284 16.8067 245.845 17.3672 246.032 17.741C246.272 18.3016 246.299 18.8891 246.032 20.6243C245.845 21.8256 245.685 23.3204 245.685 23.9878C245.685 24.655 245.818 25.3487 246.005 25.5358C246.192 25.7226 246.646 25.8564 247.02 25.8564C247.394 25.8564 248.062 25.803 248.489 25.723C249.13 25.5895 249.424 25.2955 249.958 24.201C250.332 23.4269 250.893 22.4658 251.24 22.0654C251.587 21.6116 252.095 21.3183 252.496 21.3183C252.87 21.3183 253.644 21.5586 254.232 21.8522C254.819 22.1458 255.434 22.6264 255.567 22.92C255.727 23.2137 255.834 23.8542 255.834 24.3079C255.834 24.7884 255.701 25.6696 255.54 26.2569C255.38 26.8442 253.938 30.1544 252.362 33.598C250.759 37.0417 248.756 41.4197 247.875 43.3417C246.673 45.9842 246.139 46.8654 245.658 47.0524C245.177 47.2393 244.723 47.1591 243.949 46.7855C243.308 46.4918 242.853 46.0646 242.8 45.7443C242.747 45.4506 243.281 43.3417 243.949 41.0726C244.643 38.8036 245.818 35.1997 246.539 33.0641C247.287 30.9285 247.928 29.0329 247.982 28.8461C248.062 28.6326 247.794 28.526 247.234 28.526C246.753 28.5259 245.765 28.3657 245.017 28.1255C244.296 27.912 243.254 27.4046 242.747 26.9774C242.239 26.577 241.518 25.5893 241.144 24.8418C240.771 24.068 240.37 23.4808 240.209 23.5337C240.076 23.5604 238.393 25.963 236.47 28.8727C234.574 31.7557 231.609 36.2406 229.927 38.8567C228.244 41.4726 226.375 44.1152 225.787 44.7562C225.199 45.3702 224.425 45.9576 224.051 46.0378C223.677 46.1179 222.849 46.038 222.181 45.8512C221.513 45.691 220.658 45.2105 220.258 44.7834C219.644 44.1694 219.51 43.7686 219.51 42.7275C219.51 42.0333 219.991 39.7377 220.552 37.6023C221.14 35.4667 222.288 31.8095 223.089 29.4603C223.891 27.1111 225.039 23.9344 225.653 22.3861C226.268 20.8379 227.015 19.1026 227.309 18.5153C227.63 17.928 228.164 16.9934 228.511 16.4328C228.992 15.6587 229.286 15.4453 229.927 15.4453Z" fill="#113746"/>
<path d="M255.139 10.2929C255.807 10.3196 256.662 10.5596 257.276 10.9066C257.81 11.2269 258.398 11.7878 258.558 12.1616C258.718 12.562 258.745 13.2561 258.611 13.8968C258.505 14.5107 258.104 15.2847 257.677 15.6851C257.089 16.2724 256.689 16.4328 255.727 16.4328C255.06 16.4328 254.178 16.2459 253.724 16.0324C253.297 15.8188 252.736 15.2313 252.496 14.7508C252.122 13.9766 252.122 13.79 252.496 12.8289C252.709 12.2417 253.163 11.4406 253.457 11.0135C253.911 10.4263 254.231 10.2929 255.139 10.2929Z" fill="#113746"/>
<path fill-rule="evenodd" clip-rule="evenodd" d="M217.107 9.67924C215.718 9.75933 214.542 9.75923 214.515 9.70584L208.426 10.453C204.714 11.1738 203.298 11.5212 202.897 11.6814C202.417 11.8682 202.096 12.2418 201.99 12.6955C201.909 13.1226 201.989 13.7903 202.203 14.2174C202.39 14.6445 202.791 15.1514 203.084 15.365C203.378 15.5518 204.286 15.7122 205.088 15.7122C205.889 15.7122 207.705 15.5254 209.094 15.3118C209.468 15.2543 209.922 15.1853 210.419 15.1098C211.77 14.9047 213.432 14.6524 214.622 14.4573C216.634 14.1369 217.73 14.066 217.908 14.244C218.094 14.4313 216.839 18.4307 215.744 21.42C217.133 17.309 214.863 23.8493 215.744 21.42C214.356 25.5311 212.619 30.8167 211.898 33.1659C211.177 35.515 211.177 34.794 210.429 37.5169C209.682 40.2395 209.094 42.7752 209.094 43.176C209.094 43.7366 209.308 44.0305 209.895 44.3241C210.349 44.5376 211.097 44.7245 211.578 44.7245C212.032 44.7512 212.593 44.5907 212.753 44.4039C212.94 44.216 214.276 40.5061 215.744 36.1821C217.187 31.8576 218.201 30.4697 219.457 27.1595C220.712 23.8493 222.235 19.8984 222.849 18.3501C223.463 16.8018 221.513 21.5001 222.849 18.3501C224.291 15.0408 225.706 13.4177 226 13.2831C226.241 13.1496 229.259 12.9627 232.677 12.8827C236.068 12.7759 239.086 12.589 239.355 12.4822C239.657 12.3221 239.809 11.9304 239.809 11.3075C239.809 10.6402 239.648 10.2664 239.221 9.97279C238.767 9.70588 237.191 9.54533 233.051 9.38517L227.469 9.17193C227.79 7.30339 227.87 6.39568 227.843 5.96853C227.816 5.51472 227.63 4.92742 227.443 4.63377C227.229 4.34012 226.641 3.8861 226.107 3.61915C225.573 3.37891 224.798 3.16554 224.398 3.16554C223.97 3.13892 223.463 3.35232 223.223 3.61915C222.956 3.8861 222.181 5.24777 221.487 6.6359C220.793 8.02379 220.071 9.25141 219.938 9.3586C219.777 9.43868 218.495 9.59916 217.107 9.67924Z" fill="#113746"/>
<path d="M196.866 3.42728C198.006 2.68962 199.871 1.69054 201.007 1.17226C202.607 0.440948 203.525 0.186014 204.963 0.0536757C206.089 -0.0499891 207.156 -0.00225496 207.754 0.186109C208.251 0.335036 209.064 0.77119 209.535 1.16583C210.03 1.55826 210.705 2.32353 211.048 2.90031C211.415 3.47489 211.813 4.38728 211.96 4.93345C212.123 5.64852 212.098 6.4295 211.882 7.49576C211.696 8.36457 211.092 9.929 210.536 10.9779C209.956 12.029 208.959 13.5322 208.279 14.2762C207.601 15.0443 206.888 15.694 206.696 15.7117C206.504 15.7293 206.001 15.508 205.562 15.2077C205.045 14.8416 204.768 14.4534 204.728 14.0191C204.69 13.6089 205.188 12.2002 205.978 10.5458C206.707 9.01858 207.475 7.12282 207.672 6.37466C207.957 5.27765 207.952 4.96176 207.701 4.86317C207.525 4.78209 206.996 4.80649 206.547 4.92078C206.098 5.03508 204.768 5.54687 203.632 6.06515C202.494 6.55931 200.264 7.78671 198.688 8.78344C197.113 9.78018 194.779 11.4552 193.474 12.5C192.169 13.5449 190.068 15.3931 188.781 16.631C187.494 17.8689 185.518 20.022 184.39 21.4156C183.264 22.8333 182.028 24.6261 181.69 25.4117C181.327 26.1994 181.087 27.0002 181.177 27.1867C181.266 27.3731 181.718 27.5505 182.227 27.5766C182.737 27.6027 185.148 27.551 187.605 27.4708C190.06 27.3665 192.89 27.398 193.89 27.5006C194.89 27.6032 196.435 27.8504 197.324 28.0605C198.213 28.2707 199.571 28.8513 200.339 29.316C201.109 29.8048 202.095 30.5414 202.52 30.9646C202.946 31.3878 203.522 32.1377 203.835 32.6443C204.147 33.1509 204.524 34.0897 204.658 34.7587C204.808 35.5966 204.768 36.4763 204.542 37.6896C204.339 38.633 203.803 40.1667 203.308 41.0883C202.838 42.0077 201.708 43.6448 200.817 44.7245C199.902 45.8065 198.515 47.2726 197.708 47.9552C196.903 48.662 195.481 49.742 194.547 50.3633C193.616 51.0087 191.845 51.9749 190.639 52.5239C188.643 53.4134 188.171 53.5299 185.562 53.7944C183.07 54.0238 182.56 53.9977 181.682 53.6406C181.128 53.3995 180.289 52.9415 179.798 52.5973C179.331 52.2509 178.611 51.5142 178.196 50.944C177.558 50.0537 177.448 49.6501 177.273 47.7438C177.095 45.8134 177.129 45.3966 177.658 44.0582C177.968 43.2266 178.828 41.809 179.543 40.9158C180.427 39.7637 181.032 39.2456 181.439 39.2081C181.772 39.1531 182.343 39.3196 182.729 39.576C183.137 39.8062 183.465 40.214 183.489 40.4795C183.513 40.7449 183.108 41.5853 182.571 42.3161C182.037 43.071 181.355 44.3262 181.062 45.0831C180.635 46.2175 180.567 46.7835 180.707 48.3037C180.847 49.8239 180.983 50.2494 181.404 50.6243C181.827 51.0234 182.195 51.0868 183.489 50.9677C184.373 50.862 185.743 50.5169 186.674 50.1391C187.56 49.7899 189.171 48.9115 190.243 48.2288C191.314 47.5219 193.067 46.0951 194.176 45.0196C195.261 43.9463 196.767 42.2015 197.49 41.1372C198.238 40.0707 199.188 38.3284 199.624 37.2906C200.08 36.2022 200.417 34.8814 200.448 34.1729C200.475 33.1484 200.374 32.8413 199.916 32.3238C199.54 31.9204 198.86 31.618 197.801 31.3991C196.962 31.2087 195.356 31.0888 194.221 31.096C193.089 31.1272 190.054 31.2362 187.482 31.3757C183.657 31.5575 182.544 31.5383 181.428 31.2274C180.635 31.0084 179.569 30.4495 178.89 29.9036C178.262 29.3774 177.48 28.5003 177.185 27.9191C176.776 27.1537 176.627 26.5834 176.678 25.8244C176.699 25.2628 176.882 24.3699 177.101 23.863C177.294 23.3342 178.019 22.0264 178.719 20.9643C179.418 19.9022 180.972 17.8853 182.15 16.5114C183.328 15.1375 185.308 13.0328 186.528 11.8497C187.748 10.6667 190.116 8.57493 191.78 7.22935C193.442 5.85963 195.726 4.16494 196.866 3.42728Z" fill="#113746"/>
<path d="M213.201 46.8137C211.44 47.9596 207.716 47.6898 207.716 48.2077C207.716 48.7256 210.712 49.2111 211.538 50.5698C212.365 51.9285 211.055 55.9558 211.63 56.2697C212.204 56.5835 214.41 51.5391 216.154 50.5698C217.897 49.6006 220.888 49.8254 220.879 49.4777C220.871 49.13 218.641 48.648 217.852 47.1817C217.063 45.7155 218.095 41.808 217.389 41.3374C216.683 40.8667 214.962 45.6679 213.201 46.8137Z" fill="#347683"/>
<path d="M134.222 8.6859C132.461 9.83176 128.738 9.56197 128.738 10.0799C128.737 10.5977 131.733 11.0833 132.56 12.442C133.386 13.8007 132.077 17.828 132.651 18.1419C133.225 18.4557 135.432 13.4113 137.175 12.442C138.918 11.4728 141.909 11.6976 141.901 11.3499C141.892 11.0022 139.662 10.5202 138.873 9.05392C138.085 7.58765 139.117 3.68018 138.411 3.20954C137.705 2.73891 135.984 7.54005 134.222 8.6859Z" fill="#347683"/>
<path d="M327.584 22.7568C325.823 23.9027 322.099 23.6329 322.099 24.1508C322.099 24.6687 325.095 25.1543 325.921 26.513C326.748 27.8717 325.438 31.899 326.013 32.2128C326.587 32.5267 328.793 27.4822 330.537 26.513C332.28 25.5437 335.271 25.7686 335.262 25.4208C335.254 25.0731 333.024 24.5911 332.235 23.1249C331.446 21.6586 332.478 17.7511 331.772 17.2805C331.066 16.8098 329.345 21.611 327.584 22.7568Z" fill="#347683"/>
<path d="M6.22225 25.0265C4.46085 26.1724 0.737621 25.9026 0.737549 26.4205C0.737477 26.9384 3.73312 27.4239 4.55959 28.7826C5.38606 30.1413 4.07652 34.1686 4.65077 34.4825C5.22503 34.7964 7.43168 29.7519 9.17501 28.7826C10.9183 27.8134 13.9094 28.0382 13.9007 27.6905C13.8919 27.3428 11.6618 26.8608 10.8733 25.3945C10.0847 23.9283 11.1165 20.0208 10.4106 19.5502C9.70461 19.0795 7.98365 23.8807 6.22225 25.0265Z" fill="#347683"/>
</svg>
