<svg width="60" height="50" viewBox="0 0 60 50" fill="none" xmlns="http://www.w3.org/2000/svg">
<ellipse cx="35.4415" cy="24.5585" rx="24.5585" ry="24.5585" fill="#72D1D1"/>
<g clip-path="url(#clip0_265_386)">
<path d="M43.3891 22.9424C43.252 28.4106 41.4608 33.1795 37.8607 37.2977C34.473 41.177 30.2227 43.5692 25.2029 44.3791C18.8276 45.4015 13.0405 43.8348 7.96542 39.7519C4.07786 36.6272 1.55249 32.5997 0.5419 27.802C-0.840198 21.2163 0.389316 15.0909 4.58647 9.69801C7.63372 5.76784 11.5943 3.25616 16.3951 2.07888C17.5539 1.79562 18.7679 1.73145 19.9598 1.57654C20.9505 1.45262 21.95 1.56326 22.954 1.35525C23.7943 1.17821 24.754 1.43491 25.6342 1.62301C29.9706 2.53917 33.8162 4.43344 36.9519 7.609C40.2136 10.9284 42.3454 14.8431 42.9778 19.5057C43.1348 20.6454 43.2542 21.7939 43.3891 22.9424ZM22.4365 15.2591C19.1107 15.2304 15.0816 18.1072 15.1125 22.9446C15.1391 27.1492 17.9873 30.5306 22.7859 30.5948C27.3281 30.6589 30.4837 27.1559 30.4394 22.9557C30.393 18.6117 27.1998 15.4229 22.4365 15.2591ZM6.42411 30.8714L7.52978 30.4576C4.96682 26.5584 4.71915 22.491 5.92213 18.2864C7.12511 14.0818 9.61509 10.7204 13.3036 8.25961L12.9587 7.32353C12.7404 7.37772 12.529 7.45641 12.3284 7.55811C11.7736 7.90859 11.2444 8.29832 10.7451 8.72432C5.68551 13.4246 3.2486 19.1074 4.38303 26.0737C4.67265 27.8126 5.37235 29.4572 6.42411 30.8714ZM34.5083 13.325C34.9506 13.9291 35.1828 14.2544 35.4216 14.5731C37.8143 17.7797 38.5883 21.4266 38.0354 25.3058C37.5622 28.5589 35.9789 31.387 33.898 33.9208C33.3584 34.5847 32.8144 35.2309 32.2351 35.9257L32.8211 36.5564C33.7896 36.1138 34.2385 35.2286 34.8378 34.5028C37.1951 31.6503 38.8006 28.4017 39.2605 24.7305C39.8023 20.4772 38.5463 16.6511 35.9059 13.2852C35.76 13.0993 35.5079 12.9975 35.1496 12.7497L34.5083 13.325ZM9.52001 24.1131C8.57797 19.8775 10.0065 16.5979 12.7154 13.6813L11.9591 13.1281C8.67085 15.6906 7.07646 21.0017 8.62441 24.3676L9.52001 24.1131Z" fill="#EB4C7D"/>
<path d="M22.4762 21.6699C23.8429 21.8248 24.064 22.1125 24.0419 23.7589L22.8367 24.4649L21.8084 23.801C21.5298 22.9269 21.6448 22.2431 22.4762 21.6699Z" fill="#EB4C7D"/>
</g>
<defs>
<clipPath id="clip0_265_386">
<rect width="43.389" height="43.389" fill="white" transform="translate(0 1.28882)"/>
</clipPath>
</defs>
</svg>
