<svg width="60" height="60" viewBox="0 0 60 60" fill="none" xmlns="http://www.w3.org/2000/svg">
<path fill-rule="evenodd" clip-rule="evenodd" d="M14.0477 0.00031977C14.3911 -0.0153644 15.4021 0.549576 15.7487 0.887789C16.0076 1.14055 17.0918 3.54643 17.3604 5.14146C17.7129 7.23469 17.973 9.58551 18.7131 12.4709C19.4533 15.3562 20.151 17.547 20.5545 18.9603C21.093 20.8461 21.4007 22.6893 21.4357 23.0876C21.4248 23.0947 21.4162 23.1005 21.4094 23.1047L21.3934 23.1151C21.2216 23.183 21.0717 23.3061 20.9982 23.3664C20.9142 23.4352 20.7862 23.5468 20.6993 23.6201C20.4883 23.7979 20.2793 23.9562 20.0677 24.0544C19.7161 24.2175 19.4499 24.3639 19.1993 24.4997C18.9499 24.6349 18.709 24.7638 18.3806 24.9112C18.1005 25.037 17.8913 25.1481 17.6699 25.2684C17.4506 25.3875 17.2186 25.5158 16.8713 25.6907C16.0564 26.1012 15.5434 26.5303 15.023 26.9038C14.9467 26.9586 14.7986 27.0736 14.5906 27.2378C14.0629 26.7686 14.1935 24.1754 13.3872 21.3789C12.9655 19.9161 12.7609 18.4545 12.456 17.1227C11.8789 14.6016 11.4016 13.0771 11.335 10.9679C11.2789 9.19509 10.9641 6.01288 11.0034 4.25242C11.0576 1.81918 11.3789 1.50544 11.8987 0.886211C12.3967 0.292946 13.6823 0.0171113 14.0477 0.00031977ZM18.1423 14.7576C18.0252 14.4115 16.8322 15.0731 15.9177 15.2308C15.0031 15.3885 13.4589 15.4501 13.459 15.796C13.4593 16.1419 14.9416 16.1535 15.8008 16.0268C16.8018 15.8792 18.2593 15.1037 18.1423 14.7576Z" fill="#E84376"/>
<path d="M24.7919 16.3069C25.8595 15.9863 26.6672 15.6864 28.2837 16.4841C28.8533 16.7653 29.5734 18.7769 29.7162 19.6743L29.7283 20.0403L29.8624 20.6336C29.7942 20.9755 29.7057 21.6505 29.619 22.7824C29.5671 23.4603 29.4873 24.1933 29.4482 24.8618L29.0316 28.5L28.6631 33.7528C28.6622 33.9436 28.6442 34.0535 28.6185 34.242C28.5955 34.4108 28.5725 34.6057 28.5655 34.892C28.5385 34.9418 28.5115 34.9926 28.4852 35.0418C28.4283 35.1481 28.3722 35.2526 28.3155 35.3524C28.1907 35.5722 28.1033 35.6957 28.0587 35.7395C27.9807 35.8161 27.8086 35.9612 27.6009 36.0904C27.3824 36.2263 27.1965 36.2994 27.0779 36.3129C26.5735 36.37 26.0474 36.4595 25.4967 36.3656C24.9684 36.2754 24.7131 36.2268 24.5186 36.1508C24.3658 36.0911 24.2318 36.0061 24.0143 35.7756C23.8619 35.614 23.811 35.5085 23.7475 35.3098C23.6795 35.0972 23.5769 34.6788 23.366 34.1284C23.2464 33.8162 23.1565 33.5481 23.0969 33.3397C23.1079 33.3337 23.1198 33.3269 23.133 33.3201C23.8318 32.9553 24.3108 32.5441 25.0791 31.9199C25.903 31.2505 26.3065 30.6893 26.5244 30.4343C26.8247 30.0831 27.0526 29.7757 27.3164 29.2631C27.473 28.9588 27.7077 28.5884 27.895 28.1438C28.4487 27.0528 28.6612 25.3476 28.6629 25.3342C28.6629 25.3342 28.6562 25.2986 28.6437 25.235C28.6923 24.8847 28.7133 24.5376 28.6743 24.2446C28.5601 23.3852 28.24 22.7684 27.9958 22.3646C27.8312 22.0925 27.5531 21.8722 27.3532 21.7336C27.1405 21.5862 26.8945 21.4489 26.7001 21.3778C26.4241 21.2769 25.739 20.999 24.715 21.2022C24.3655 21.2716 24.0914 21.3389 23.8181 21.4557C23.5497 21.5705 23.3104 21.7213 23.0198 21.9135C22.7338 22.1026 22.4782 22.2909 22.2557 22.4609L22.1057 20.8261C22.0953 19.8987 22.4479 18.3299 22.822 17.6467C23.1901 16.9742 23.9749 16.5523 24.7919 16.3069Z" fill="#E84376"/>
<path fill-rule="evenodd" clip-rule="evenodd" d="M45.0267 3.90108C45.3093 3.80798 46.2169 3.91769 46.5998 4.1963C47.5336 4.8758 48.0103 6.43026 47.9998 7.6184C47.9924 8.46412 47.9726 9.96283 47.1393 13.5262C46.5199 16.1747 45.5578 20.5164 45.0267 22.7755C44.4354 25.2905 44.3391 26.5751 44.4895 28.181C44.5795 29.1422 44.6317 29.6829 44.7234 30.3548C44.8519 31.2959 45.5948 33.1541 45.9261 35.0966C46.0061 35.5656 46.043 37.3318 45.7811 40.1591C45.6618 41.4463 45.5611 42.4716 45.0335 43.7184C43.8579 46.4964 43.1128 48.1798 43.0101 48.5504C42.7682 49.424 42.0095 50.1606 42.0329 51.7985C42.0748 54.7299 42.1039 56.887 41.8179 57.0158C41.6943 57.0715 41.5372 57.0088 40.1417 56.9928C38.7459 56.9768 36.1886 57.0065 34.4576 57.1188C32.7267 57.231 31.8506 57.432 31.1137 57.5591C29.8052 57.7849 28.4797 57.8904 27.1927 58.3641C25.013 59.1663 23.7883 59.9412 22.8009 59.9964C22.495 60.0135 22.0933 60.0076 21.8994 59.0564C21.7056 58.1053 21.7475 56.2639 21.7064 55.2134C21.6554 53.9079 20.6865 51.9404 19.3004 49.3258C18.4515 47.7245 17.034 46.6321 15.3519 44.3893C13.7453 42.2472 13.0868 41.6159 13.2059 40.3835C13.3325 39.0734 13.9057 36.9552 14.3978 34.2911C14.8711 31.7289 14.7551 31.3822 14.7639 30.1303C14.8433 30.0547 14.9021 29.1848 15.002 28.6891C15.4395 28.3388 15.7392 28.1028 15.8504 28.023C16.45 27.5926 16.825 27.269 17.5107 26.9237C17.8817 26.7368 18.1346 26.5968 18.3481 26.4808C18.5595 26.366 18.7319 26.275 18.9631 26.1712C19.3409 26.0015 19.6192 25.8523 19.8765 25.7128L19.9188 25.6898C20.1581 25.56 20.378 25.4408 20.6664 25.3069C21.057 25.1256 21.3843 24.865 21.6127 24.6725C21.7454 24.5607 21.8131 24.4992 21.8967 24.4307C21.9312 24.4024 21.9518 24.3874 21.9607 24.3809C22.1053 24.3169 22.2405 24.2256 22.344 24.1511C22.4665 24.0629 22.6049 23.954 22.7454 23.8434L22.752 23.8383C23.0456 23.6073 23.3907 23.3358 23.8028 23.0632C24.093 22.8714 24.2382 22.7853 24.3773 22.7259C24.5114 22.6685 24.6683 22.6239 24.9924 22.5596C25.6123 22.4366 25.983 22.5924 26.2111 22.6758C26.2544 22.6917 26.3913 22.7597 26.5448 22.8661C26.6165 22.9158 26.6793 22.9653 26.727 23.0094C26.779 23.0573 26.7927 23.0801 26.7888 23.0736C26.9799 23.3895 27.2011 23.8221 27.2812 24.4244C27.3156 24.6838 27.2509 25.1709 27.1151 25.7698C26.9858 26.3404 26.8204 26.8996 26.7147 27.2809C26.578 27.7737 26.3707 28.0391 26.0632 28.6366C25.858 29.0353 25.696 29.2547 25.4501 29.5424C25.1812 29.8568 24.8835 30.2843 24.1854 30.8515C23.3752 31.5097 23.0194 31.8126 22.4753 32.0966C22.4118 32.1297 22.362 32.158 22.3216 32.1815L22.3145 32.182C21.9172 32.2061 21.7271 32.4995 21.666 32.6584C21.6117 32.7995 21.6093 32.9311 21.6102 32.9962C21.612 33.144 21.6421 33.3071 21.676 33.453C21.7475 33.7602 21.8784 34.1656 22.0515 34.6175C22.2475 35.1288 22.3012 35.3937 22.4074 35.7258C22.5179 36.0717 22.6591 36.3725 22.9853 36.7183C23.3 37.0519 23.6001 37.2814 24.0004 37.4379C24.353 37.5757 24.7622 37.6455 25.2328 37.7258L25.257 37.7299C26.0579 37.8666 26.8361 37.734 27.2382 37.6885C27.6663 37.64 28.0649 37.4393 28.351 37.2614C28.6477 37.0768 28.9006 36.8675 29.0505 36.7203C29.0924 36.6791 29.1326 36.6336 29.1717 36.5862C29.1717 36.5862 29.9698 37.5 30.5544 37.795C31.1389 38.0901 31.538 38.0419 31.9096 38.0362C32.2695 38.0306 32.5559 37.96 32.6752 37.9377C32.9639 37.8837 33.287 37.7675 33.5831 37.6082C33.8759 37.4507 34.1918 37.2244 34.4217 36.9222C34.8255 36.3914 35.2429 35.7017 35.3808 35.2881C35.3869 35.2699 35.3923 35.2512 35.3968 35.2325L37.324 27.2705C37.404 26.978 37.6677 25.9568 38.0059 25.0304C38.0133 25.0102 38.0197 24.9895 38.0251 24.9687L38.885 21.6768C38.8924 21.6487 38.898 21.62 38.9017 21.5912C38.9163 21.4782 38.9287 21.3681 38.9406 21.2541C39.1946 20.4388 39.4776 19.526 39.7739 18.1993C40.2673 15.9904 41.1715 12.0696 41.8339 9.69442C42.4963 7.31939 42.6181 6.36676 42.9673 5.76188C43.6836 4.52131 44.1313 4.19606 45.0267 3.90108ZM34.7689 50.0652C34.893 49.8206 35.1815 49.9712 35.6517 50.2167C36.0689 50.4345 36.6293 50.7271 37.345 50.8844C38.0736 51.0446 38.6948 51.0224 39.1445 51.0063C39.6343 50.9888 39.9207 50.9785 39.9207 51.2191C39.9208 51.6806 38.1237 51.8729 37.2277 51.6923C36.1068 51.4664 34.5346 50.5269 34.7689 50.0652ZM27.2752 50.4231C27.6805 50.3169 28.147 50.1141 28.5749 49.9282C29.2359 49.6409 29.8049 49.3936 29.9147 49.6035C30.0954 49.9495 29.084 50.6574 28.2119 50.9883C26.9927 51.451 24.6826 51.334 24.6325 50.9881C24.6025 50.7807 25.1881 50.7161 25.8841 50.6393C26.3486 50.588 26.8624 50.5313 27.2752 50.4231ZM31.6077 39.3343C32.193 39.2193 33.2276 41.152 33.3638 42.577C33.5144 44.1522 32.4272 46.6036 31.959 46.3727C31.4908 46.1418 32.4803 43.831 32.4271 42.4616C32.371 41.02 31.0224 39.4495 31.6077 39.3343ZM25.8704 23.4231C26.3387 23.3079 26.7453 25.3402 26.2216 26.1917C25.7955 26.8846 24.3575 28.0312 24.3482 28.0385C24.3426 28.0347 21.5504 26.1686 21.8892 25.8345C22.228 25.5006 24.3423 27.226 24.3482 27.2308C24.3555 27.2227 25.3468 26.1146 25.6362 25.6154C25.8808 25.1936 25.806 24.6459 25.7455 24.2024C25.6901 23.7967 25.6466 23.4783 25.8704 23.4231Z" fill="#E84376"/>
<path d="M32.4022 16.9123C33.0051 16.4593 34.7036 16.7925 35.7552 16.9125C36.337 16.979 37.0945 17.7741 37.4162 18.7879C37.5294 19.145 37.5999 19.5283 37.6384 19.9253C37.6302 20.0218 37.6228 20.1166 37.6165 20.2088C37.5798 20.7476 37.5529 21.0557 37.5127 21.376L36.6722 24.5934L36.0569 27L34.0384 34.8757C33.9597 35.0882 33.6603 35.6148 33.2975 36.0918C33.2279 36.1832 33.095 36.2931 32.9096 36.3929C32.7276 36.4908 32.5426 36.5532 32.4131 36.5774C32.2156 36.6144 32.092 36.6486 31.8874 36.6518C31.6942 36.6548 31.4169 36.6266 31.0214 36.4893C30.7608 36.3988 30.5824 36.2271 30.4162 35.9426C30.2421 35.6443 30.1417 35.3458 29.9698 34.9363C29.9749 34.7073 29.9926 34.5611 30.011 34.4264C30.0346 34.2533 30.0667 34.0548 30.0682 33.7597C30.0701 33.3845 30.0701 33.0592 30.0785 32.783C30.0871 32.4983 30.1035 32.3142 30.1256 32.2097C30.208 31.8195 30.2114 31.3989 30.2058 31.0241C30.2 30.6245 30.1842 30.2701 30.2017 29.9059C30.2094 29.7474 30.2348 29.5709 30.2679 29.3419L30.2729 29.3073C30.3057 29.0795 30.3431 28.8093 30.3547 28.5291L30.6154 24.961C30.6157 24.9576 30.6159 24.9542 30.6161 24.9509C30.6549 24.2804 30.7275 23.6474 30.7858 22.8866C30.8725 21.7541 30.9574 21.1455 31.0085 20.8932C31.01 20.886 31.0112 20.8787 31.0124 20.8714L31.3557 18.8413L31.4581 18.5175C31.5702 18.2368 31.6659 18.0176 31.7246 17.873C31.7246 17.873 31.7992 17.3652 32.4022 16.9123Z" fill="#E84376"/>
</svg>
