<svg width="48" height="49" viewBox="0 0 48 49" fill="none" xmlns="http://www.w3.org/2000/svg">
<path d="M13.5118 13.9616C9.17251 16.7844 0.000176731 16.1198 3.17384e-09 17.3956C-0.000176719 18.6715 7.3797 19.8677 9.41575 23.2149C11.4518 26.5621 8.22568 36.4835 9.64039 37.2568C11.0551 38.03 16.4913 25.6028 20.786 23.2149C25.0808 20.8271 32.4494 21.3811 32.4279 20.5244C32.4063 19.6678 26.9124 18.4804 24.9697 14.8682C23.0271 11.256 25.5691 1.62976 23.8299 0.470332C22.0907 -0.689098 17.8511 11.1387 13.5118 13.9616Z" fill="#EB4C7D"/>
<path d="M35.1668 32.5849C32.2229 34.4973 26.0001 34.047 26 34.9114C25.9999 35.7758 31.0066 36.5862 32.3879 38.8539C33.7692 41.1217 31.5805 47.8434 32.5403 48.3672C33.5001 48.891 37.1881 40.4717 40.1018 38.8539C43.0155 37.2362 48.0146 37.6115 48 37.0312C47.9853 36.4508 44.2581 35.6463 42.9402 33.1991C41.6222 30.7518 43.3468 24.2301 42.1669 23.4446C40.987 22.6591 38.1107 30.6724 35.1668 32.5849Z" fill="#EB4C7D"/>
</svg>
