<svg width="60" height="60" viewBox="0 0 60 60" fill="none" xmlns="http://www.w3.org/2000/svg">
<path d="M51.9422 56.8786C48.1549 54.0347 44.659 51.496 41.2601 48.8324C37.4867 45.8775 34.074 45.4751 30.2451 49.0405C26.4488 52.5015 22.421 55.6997 18.1896 58.6127C16.8023 59.5838 14.7908 59.5422 13.0566 60C12.8763 57.8497 11.9607 55.4081 12.6682 53.6185C14.224 49.55 16.289 45.695 18.8139 42.1457C21.5884 38.3723 20.2012 36.2081 17.1491 33.822C11.9884 30.0069 7.02197 25.9838 2 22.0301L2.49942 20.4763C7.9237 20.4763 13.348 20.296 18.7723 20.4763C23.4751 20.6844 24.9318 18.3815 25.1676 14.0948C25.4312 9.50289 26.222 4.93873 26.7908 0.360694L28.6775 0C31.8821 4.30058 35.3642 8.42081 38.2081 12.9434C40.4555 16.5225 42.8139 17.5353 46.9757 16.4254C50.6936 15.4266 55.8405 12.6243 57.9491 17.674C58.7676 19.6162 55.1746 23.889 52.9827 26.5387C43.8405 37.3457 44.3399 32.5873 50.8462 45.2532C54.4948 52.3561 54.7168 52.259 51.9422 56.8786Z" fill="#72D1D1"/>
</svg>
