<svg width="375" height="110" viewBox="0 0 375 110" fill="none" xmlns="http://www.w3.org/2000/svg">
<rect width="375" height="110" rx="40" fill="#EFFBFB"/>
<rect width="375" height="110" rx="40" fill="url(#paint0_radial_599_137)" fill-opacity="0.6"/>
<rect width="375" height="110" rx="40" fill="url(#paint1_radial_599_137)" fill-opacity="0.6"/>
<path d="M140.246 44.3338C140.246 43.1031 141.378 38.7708 141.649 37.3923C141.92 36.1862 142.708 35.7923 144.086 35.7923C145.908 35.7923 147.557 36.8262 147.557 38.3031C147.557 38.7954 147.311 39.2877 146.892 39.8046C146.302 40.2969 146.449 40.6908 146.966 40.9862C147.582 41.3062 147.877 42.0446 147.877 42.8077C147.877 44.7277 144.603 46.3769 142.289 46.3523C140.714 46.3523 140.246 45.6877 140.246 44.3338ZM143.717 39.6077C144.751 39.1646 146.055 38.5246 145.391 38.0077C144.972 37.6631 144.455 37.5646 143.84 37.6877C143.471 37.7615 143.175 38.4262 143.175 39.0908C143.151 39.5092 143.397 39.7554 143.717 39.6077ZM142.855 44.4569C144.037 44.2354 145.932 43.5215 145.932 42.7831C145.932 42.1185 144.086 41.8969 143.102 42.02C142.363 42.0692 142.166 43.1523 142.166 43.7923C142.166 44.3092 142.338 44.5554 142.855 44.4569ZM150.225 45.7862C149.314 45.7123 148.871 45.2446 148.871 44.3338C148.871 43.4969 149.043 42.6846 149.216 41.8723C149.437 40.8631 150.348 37.7369 150.594 37.1462C151.037 35.9892 151.53 35.5954 152.49 35.6446C154.139 35.6446 155.936 35.6692 156.01 36.6785C156.182 37.8108 154.434 37.7123 153.08 37.4908C152.613 37.4415 152.342 37.5154 152.219 38.0077C152.12 38.4262 151.997 38.7954 151.899 39.1892C151.8 39.4846 151.948 39.7308 152.293 39.78C153.351 39.8785 154.065 39.78 154.163 40.6415C154.213 41.7985 153.007 41.5769 151.776 41.7C151.283 41.7246 151.111 41.8477 150.988 42.2908C150.914 42.5862 150.865 42.9308 150.816 43.2508C150.791 43.6446 150.988 43.8662 151.431 43.8662C152.982 43.8662 153.917 43.2754 154.139 44.4077C154.213 44.7523 154.016 45.1215 153.647 45.3185C153.253 45.5154 150.545 45.7862 150.225 45.7862ZM160.23 46.2046C158.728 46.5 156.833 45.7123 156.538 44.6538C156.39 44.1615 156.587 43.6446 157.03 43.4231C157.448 43.2015 157.818 43.3 158.138 43.7185C158.507 44.2354 159.024 44.4815 159.688 44.4323C161.042 44.3092 161.239 42.7092 160.107 41.5769C159.565 41.0846 158.285 40.1246 157.99 39.6815C157.498 38.9431 157.522 38.2785 158.015 37.5892C158.901 36.4815 160.845 35.6446 162.593 35.62C163.258 35.62 163.627 35.8662 163.701 36.3585C163.799 36.9 163.479 37.22 162.618 37.4169C161.928 37.5154 161.239 37.6138 160.575 37.9338C159.516 38.4508 159.516 38.6969 160.378 39.3862C161.855 40.4938 162.519 41.6015 162.692 43.1031C162.839 44.5308 161.732 45.9092 160.23 46.2046ZM167.809 45.9585C167.292 45.6877 167.193 45.2446 167.489 44.5062C168.104 42.8815 169.36 38.5985 169.36 37.7862C169.36 37.5646 169.261 37.3677 168.99 37.3677C167.661 37.3677 166.258 37.6138 165.667 37.6138C165.372 37.6138 165.126 37.4169 165.003 36.9985C164.83 36.5062 165.273 35.94 165.913 35.8415C167.636 35.4969 168.916 35.4477 173.716 35.4723C174.676 35.4723 175.144 35.7677 175.144 36.3585C175.144 36.7769 174.824 37.1708 174.356 37.22C173.766 37.2692 172.953 37.2938 172.461 37.2938C171.501 37.2938 171.427 37.3677 171.181 38.2785C170.59 40.6908 169.876 43.3738 169.187 45.1954C168.892 45.9092 168.326 46.2292 167.809 45.9585ZM186.462 45.3677C185.379 46.3031 184.124 46.1062 183.336 44.9246C181.982 42.8323 183.213 39.1646 185.108 37.0969C185.453 36.7277 185.847 36.4323 186.24 36.2354C186.88 35.9892 187.274 36.0877 187.693 36.58C187.89 36.8262 188.062 36.9492 188.284 37.0477C189.047 37.4662 189.268 38.8446 189.071 39.9277C188.677 41.9954 187.89 44.1615 186.462 45.3677ZM185.133 43.8662C186.117 44.0385 187.57 39.7554 187.2 38.5246C187.028 38.0569 186.659 38.1554 186.265 38.5492C185.305 39.7062 184.591 41.06 184.591 42.6846C184.591 43.3738 184.739 43.8169 185.133 43.8662ZM190.712 45.9585C190.318 45.8354 190.146 45.5892 190.121 45.1954C190.097 44.8015 190.318 44.2108 190.564 43.5462C191.007 42.4385 192.09 38.6231 192.287 37.4662C192.41 36.4569 192.903 35.8908 193.69 35.7677C196.127 35.2508 198.49 34.6108 198.663 36.0385C198.712 36.7769 198.121 36.8754 197.358 37.0231C196.89 37.0723 196.447 37.2446 194.823 37.4169C194.084 37.4908 194.035 37.8846 193.715 39.4354C193.592 39.9769 193.74 40.1738 194.306 40.1985C195.217 40.1985 195.881 40.1738 195.98 40.9123C196.177 42.0446 194.97 41.9708 193.567 42.1185C193.149 42.1185 192.878 42.34 192.78 42.7585C192.287 44.3831 191.82 45.5154 191.598 45.7123C191.303 46.0077 191.032 46.0815 190.712 45.9585ZM209.277 45.9585C208.761 45.6877 208.662 45.2446 208.957 44.5062C209.573 42.8815 210.828 38.5985 210.828 37.7862C210.828 37.5646 210.73 37.3677 210.459 37.3677C209.13 37.3677 207.727 37.6138 207.136 37.6138C206.841 37.6138 206.594 37.4169 206.471 36.9985C206.299 36.5062 206.742 35.94 207.382 35.8415C209.105 35.4969 210.385 35.4477 215.185 35.4723C216.145 35.4723 216.613 35.7677 216.613 36.3585C216.613 36.7769 216.293 37.1708 215.825 37.22C215.234 37.2692 214.422 37.2938 213.93 37.2938C212.97 37.2938 212.896 37.3677 212.65 38.2785C212.059 40.6908 211.345 43.3738 210.656 45.1954C210.361 45.9092 209.794 46.2292 209.277 45.9585ZM221.135 45.8846C220.593 45.7123 220.397 45.1954 220.618 44.4323L220.913 43.5708C221.184 42.7092 221.086 42.5615 220.2 42.5123C219.83 42.4877 219.437 42.4631 219.067 42.4631C218.698 42.4385 218.427 42.6108 218.28 43.0046C217.787 44.5554 217.541 45.2446 217.418 45.4415C217.221 45.7862 216.803 45.9092 216.384 45.7862C216.015 45.6631 215.769 45.3185 215.818 44.8754C215.867 44.2108 218.304 37.0231 218.772 36.5062C219.043 36.2108 219.412 36.1123 219.781 36.2354C220.126 36.3831 220.323 36.7523 220.273 37.1462C220.249 37.4169 219.707 38.9431 219.387 39.8292C219.215 40.3462 219.387 40.6169 219.953 40.6415H221.332C221.923 40.6169 221.972 40.2969 222.243 39.5092C223.227 36.9492 223.35 36.7031 223.498 36.4569C223.769 36.0138 224.212 35.8662 224.63 36.0385C225.123 36.26 225.27 36.8262 225 37.54L223.4 41.9215C222.341 44.9 222.193 46.2046 221.135 45.8846ZM226.975 45.7862C226.064 45.7123 225.621 45.2446 225.621 44.3338C225.621 43.4969 225.793 42.6846 225.966 41.8723C226.187 40.8631 227.098 37.7369 227.344 37.1462C227.787 35.9892 228.28 35.5954 229.24 35.6446C230.889 35.6446 232.686 35.6692 232.76 36.6785C232.932 37.8108 231.184 37.7123 229.83 37.4908C229.363 37.4415 229.092 37.5154 228.969 38.0077C228.87 38.4262 228.747 38.7954 228.649 39.1892C228.55 39.4846 228.698 39.7308 229.043 39.78C230.101 39.8785 230.815 39.78 230.913 40.6415C230.963 41.7985 229.757 41.5769 228.526 41.7C228.033 41.7246 227.861 41.8477 227.738 42.2908C227.664 42.5862 227.615 42.9308 227.566 43.2508C227.541 43.6446 227.738 43.8662 228.181 43.8662C229.732 43.8662 230.667 43.2754 230.889 44.4077C230.963 44.7523 230.766 45.1215 230.397 45.3185C230.003 45.5154 227.295 45.7862 226.975 45.7862ZM241.175 46.6723C238.713 46.6723 238.098 44.2108 238.812 41.4785C239.181 40.0754 239.772 38.8938 240.559 37.86C241.298 36.8754 242.233 36.1123 243.267 36.1123C244.424 36.1123 245.63 37.1462 245.31 38.3031C245.187 38.6969 244.892 38.9185 244.572 38.9185C244.202 38.9185 243.784 38.5985 243.71 38.2292C243.661 38.0077 243.661 37.8108 243.415 37.7615C242.873 37.7615 242.381 38.2292 242.085 38.5738C240.929 39.9277 240.313 41.5523 240.141 43.3246C240.067 43.9646 240.289 44.6785 240.682 44.9C241.396 45.3185 242.479 44.6538 243.193 44.0877C244.178 43.3246 245.162 42.4138 246.196 41.38C246.369 41.2077 246.565 40.9862 246.738 40.8385C247.23 40.3954 247.796 40.4938 248.067 40.9123C248.239 41.1585 248.289 41.4538 248.116 41.7C247.452 42.6108 245.212 44.6046 244.178 45.4169C243.292 46.1062 242.233 46.6723 241.175 46.6723ZM248.249 46.6969C246.895 46.6969 246.083 45.2938 246.083 43.8169C246.083 41.8969 246.944 40.5677 248.175 38.4508C248.618 37.7123 249.8 37.22 250.415 37.1215C251.153 37.0231 251.769 37.4908 251.769 37.9831C251.769 38.0815 251.843 38.1554 251.867 38.2046C252.236 38.9431 252.483 39.7308 252.483 40.6662C252.483 40.9369 252.483 41.1585 252.532 41.2077C253.073 41.7492 256.618 39.8046 257.086 41.0354C257.184 41.2815 257.135 41.5031 256.963 41.7985C256.643 42.3154 253.713 42.9062 252.433 42.9062C252.163 42.9062 252.015 43.0046 251.892 43.2754C251.621 43.8908 251.276 44.4569 250.833 45.0477C250.218 45.8846 249.209 46.6969 248.249 46.6969ZM250.661 40.9369C251.055 41.1338 250.71 39.0662 250.341 39.0662C250.12 39.0662 249.726 39.4108 249.553 39.6569C249.406 39.8538 249.406 39.9769 249.553 40.1738C249.8 40.5185 250.218 40.7154 250.661 40.9369ZM248.52 44.9492C249.061 44.7769 249.873 43.62 250.267 42.8569C250.341 42.7092 250.341 42.6108 250.144 42.5369C249.578 42.3154 248.987 41.9954 248.52 41.5277C248.396 41.4046 248.396 41.4292 248.323 41.5769C247.781 42.66 247.56 44.1123 247.978 44.8015C248.126 45.0231 248.249 45.0477 248.52 44.9492ZM257.186 46.6969C255.832 46.6969 255.02 45.2938 255.02 43.8169C255.02 41.8969 255.882 40.5677 257.112 38.4508C257.555 37.7123 258.737 37.22 259.352 37.1215C260.091 37.0231 260.706 37.4908 260.706 37.9831C260.706 38.0815 260.78 38.1554 260.805 38.2046C261.174 38.9431 261.42 39.7308 261.42 40.6662C261.42 40.9369 261.42 41.1585 261.469 41.2077C262.011 41.7492 265.555 39.8046 266.023 41.0354C266.122 41.2815 266.072 41.5031 265.9 41.7985C265.58 42.3154 262.651 42.9062 261.371 42.9062C261.1 42.9062 260.952 43.0046 260.829 43.2754C260.559 43.8908 260.214 44.4569 259.771 45.0477C259.155 45.8846 258.146 46.6969 257.186 46.6969ZM259.599 40.9369C259.992 41.1338 259.648 39.0662 259.279 39.0662C259.057 39.0662 258.663 39.4108 258.491 39.6569C258.343 39.8538 258.343 39.9769 258.491 40.1738C258.737 40.5185 259.155 40.7154 259.599 40.9369ZM257.457 44.9492C257.999 44.7769 258.811 43.62 259.205 42.8569C259.279 42.7092 259.279 42.6108 259.082 42.5369C258.515 42.3154 257.925 41.9954 257.457 41.5277C257.334 41.4046 257.334 41.4292 257.26 41.5769C256.719 42.66 256.497 44.1123 256.915 44.8015C257.063 45.0231 257.186 45.0477 257.457 44.9492ZM264.425 46.8692C263.933 46.8692 263.662 46.5 263.662 46.1554C263.662 44.7523 265.828 37.54 266.911 35.2015C268.265 32.2477 270.628 28.8754 272.942 29.1215C274.148 29.22 274.616 30.4754 274.419 31.5092C274.173 32.7154 273.582 33.8723 272.918 34.8569C271.293 37.2446 269.57 38.7954 267.158 40.6169C266.641 40.9862 266.567 41.0354 266.542 41.2569C266.641 41.2569 267.059 41.0354 267.108 41.0108C269.201 39.8046 270.579 38.6477 271.81 37.4169C272.253 36.9738 272.721 36.7031 273.164 37.1954C273.656 37.7615 273.287 38.1308 272.918 38.6231C272.548 39.1154 272.056 39.5338 271.49 40.0015C270.308 40.9615 269.225 41.7738 268.118 42.34C267.847 42.5123 267.724 42.5615 267.699 42.6108C267.699 42.6846 267.822 42.7338 268.019 42.8815C269.275 43.7677 270.087 44.3831 271.022 44.6538C271.564 44.8015 272.031 44.7031 272.45 44.3585C273.558 43.4969 275.182 41.2815 275.822 40.6908C276.118 40.4446 276.462 40.42 276.758 40.6169C277.078 40.8138 277.201 41.2077 277.053 41.5769C276.831 42.1431 274.69 44.58 273.902 45.2938C273.016 46.0815 272.647 46.3769 271.539 46.4015C270.555 46.4262 269.668 45.9338 268.856 45.4415C268.388 45.1708 266.247 43.5954 266.025 43.5954C265.951 43.5954 265.902 43.62 265.878 43.7185C265.779 44.1615 265.238 46.3031 265.09 46.5C264.893 46.7462 264.671 46.8692 264.425 46.8692ZM267.453 38.3277C269.422 37.0231 271.736 34.0938 272.647 31.78C272.844 31.2631 272.844 30.7708 272.598 30.7708C271.687 30.7708 269.988 32.8877 269.225 34.2662C268.708 35.1769 267.453 37.4662 267.453 38.3277ZM279.352 33.6754C278.934 33.6754 278.589 33.3308 278.589 32.9123C278.589 32.4938 278.934 32.1246 279.352 32.1246C279.771 32.1246 280.14 32.4692 280.14 32.8631C280.14 33.3062 279.771 33.6754 279.352 33.6754ZM277.088 46.82C275.98 46.82 275.094 45.8846 275.094 44.7523C275.094 44.2108 275.217 42.8077 275.439 42.0938C275.906 40.5185 276.546 38.9431 277.186 37.3185C277.531 36.4815 278.122 36.0877 278.639 36.4323C279.032 36.6785 279.131 37.0723 278.909 37.5154C278.54 38.2538 278.22 39.0415 277.9 39.8785C277.506 40.8877 277.137 42.0446 276.866 43.2508C276.694 44.0138 276.645 45.0231 276.989 45.1215C277.359 45.22 277.851 44.8262 278.245 44.4815C279.205 43.62 280.042 42.7585 280.78 41.8477C281.617 40.8385 282.109 40.1 282.799 40.6662C283.094 40.9123 283.168 41.2815 282.995 41.6508C282.602 42.4385 280.312 44.9738 279.279 45.7862C278.491 46.4015 277.925 46.82 277.088 46.82ZM284.46 46.5738C282.466 46.5738 281.383 45.1708 281.383 43.0292C281.383 40.74 282.367 38.7708 283.893 37.1708C284.583 36.4569 285.346 36.1369 286.232 36.1615C288.152 36.2354 288.398 38.3277 286.97 39.7554C285.912 40.8138 284.804 41.4046 283.549 41.5523C283.327 41.5769 283.229 41.6262 283.204 41.7738C283.106 42.4138 282.884 43.1769 283.155 43.94C283.426 44.7277 284.066 45.0723 284.878 44.8754C286.207 44.5308 287.684 43.2508 288.89 41.9954C289.826 40.9862 290.17 40.5677 290.613 40.5431C291.229 40.4938 291.623 40.9862 291.401 41.6262C291.303 41.9462 289.678 43.6446 288.89 44.3092C287.463 45.54 285.937 46.5738 284.46 46.5738ZM284.066 39.7308C284.927 39.4108 285.493 38.9677 285.912 38.4508C286.084 38.2292 286.33 37.8354 286.035 37.8354C285.297 37.8354 284.509 38.8446 284.066 39.7308ZM301.14 46.4754C299.663 46.4754 298.727 45.1215 298.653 43.5462C298.58 41.7 298.801 39.7308 299.367 37.54C299.86 35.6938 300.524 34.1923 300.524 34.02C300.524 33.7246 295.749 33.9954 295.281 33.7985C294.912 33.6262 294.764 33.3554 294.764 33.0354C294.764 32.0262 296.192 32.2231 297.866 32.2231C299.835 32.2231 300.45 32.1985 300.893 32.2231C301.287 32.2477 301.484 32.1246 301.681 31.78C302.346 30.5985 303.626 29.0477 304.61 28.6785C305.324 28.4077 306.038 28.6785 306.333 29.3185C306.727 30.18 306.53 30.6477 306.26 31.9031C306.21 32.1985 306.235 32.2477 306.53 32.2477C307.663 32.2477 308.475 32.2969 308.524 33.0354C308.598 34.0446 307.195 33.9462 305.989 33.8969C305.62 33.8723 305.398 33.9954 305.226 34.3646C304.733 35.3985 304.093 36.4077 303.33 37.3677C302.124 38.8692 300.45 40.3462 300.401 40.7154C300.253 42.3646 300.155 43.7677 300.573 44.4323C300.795 44.8015 301.115 44.9 301.509 44.7277C302.469 44.2846 303.306 43.0785 304.118 42.02C304.881 40.9123 305.201 40.2231 305.989 40.6415C306.309 40.8138 306.457 41.2077 306.333 41.5769C306.161 42.0692 304.167 44.7523 303.478 45.3677C302.764 45.9831 301.927 46.4754 301.14 46.4754ZM304.241 32.2231C304.635 32.1492 304.857 30.9677 304.857 30.5738C304.857 30.1554 303.577 31.8538 303.429 32.1492C303.429 32.2477 303.601 32.2477 304.241 32.2231ZM301.14 37.4169C301.14 37.4169 303.552 34.3892 303.552 33.9462C303.552 33.8969 303.133 33.8969 303.01 33.8969C302.518 33.8969 302.395 33.9462 302.272 34.1923C301.755 35.3492 301.46 36.2354 301.14 37.4169ZM311.071 46.5492C310.061 46.5492 309.495 45.8354 309.397 44.7277C309.323 43.9646 309.347 42.6846 309.347 42.6846C309.077 42.8323 308.141 44.9738 306.738 45.7369C306.197 46.0323 305.68 46.0569 305.237 45.8354C304.351 45.3923 304.203 44.0385 304.4 43.1031C304.769 41.3062 305.335 39.6569 306.295 38.3031C307.231 36.9738 308.486 36.0138 309.643 36.2846C311.021 36.6046 312.031 38.1308 311.637 39.5831C311.341 40.74 311.169 41.9215 310.997 43.0538C310.923 43.5954 311.021 44.7523 311.243 44.7523C311.735 44.7523 313.163 42.5369 313.557 41.7985C314.049 40.8631 314.443 40.1738 315.132 40.5923C315.6 40.8631 315.624 41.4046 315.329 41.9215C314.098 44.0877 314.271 43.8415 313.951 44.3092C313.163 45.4662 312.08 46.5492 311.071 46.5492ZM306.074 44.1615C306.418 44.1615 307.231 42.9554 307.403 42.6354C307.723 42.0938 308.191 41.38 308.757 40.3708C309.077 39.8046 309.397 39.2385 309.741 38.6723C309.889 38.4262 309.84 38.3277 309.643 38.1308C309.151 37.6385 308.511 38.1554 307.969 38.82C307.28 39.6815 306.738 40.6908 306.369 41.9215C306.123 42.6846 305.852 44.1615 306.074 44.1615ZM315.734 46.2292C315.438 46.2292 315.143 46.2046 314.847 46.1308C314.749 46.1062 314.65 46.1062 314.527 46.1062C313.641 46.1062 313.494 45.6631 313.494 44.9738C313.863 41.9954 314.035 40.5677 314.232 39.2385C314.601 36.8015 315.167 34.6846 316.054 32.7646C316.743 31.2385 317.924 29.6631 318.983 29.1954C320.632 28.4077 321.617 30.0323 321.272 31.7308C320.952 33.2815 320.337 34.8077 319.401 36.2108C319.18 36.5308 318.638 37.3677 318.638 37.3923C319.475 36.8262 320.46 36.5062 321.247 36.9985C321.887 37.3923 322.109 38.1308 322.109 38.9677C322.109 39.9769 321.937 40.6908 321.543 41.4785L321.1 42.3646C321.001 42.5369 320.927 42.7092 320.829 42.9062C321.05 42.8323 321.198 42.7585 321.321 42.7092C322.232 42.34 322.995 41.7738 323.66 41.1092C324.3 40.4692 324.866 40.3462 325.26 40.8138C325.703 41.3554 325.235 41.8723 324.767 42.34C323.537 43.5708 321.42 44.6046 319.721 45.1215C316.841 46.0323 316.743 46.2292 315.734 46.2292ZM316.177 37.7862C316.3 37.7862 317.654 35.9154 318.121 35.1769C318.81 34.0692 319.229 32.9369 319.549 31.8292C319.672 31.3615 319.697 30.7954 319.598 30.7954C319.303 30.7954 318.466 31.8292 318.072 32.4692C317.506 33.4538 315.881 37.7862 316.177 37.7862ZM315.463 44.3338C316.349 44.4569 317.752 43.9892 318.441 43.2754C319.303 42.3892 319.967 41.3062 320.337 40.0015C320.41 39.7062 320.484 39.3123 320.484 39.0908C320.484 38.8938 320.46 38.4754 320.263 38.4754C319.967 38.4754 319.155 39.0415 318.786 39.4108C317.58 40.6169 315.463 43.3985 315.463 44.3338ZM326.378 47.2877C323.252 47.2877 323.474 43.5708 324.36 40.2723C325.197 37.1462 326.674 33.9215 328.668 31.7308C329.529 30.7954 330.661 29.9338 331.671 29.9338C332.828 29.9338 333.074 31.0908 332.778 32.1246C332.04 34.6354 329.677 37.9338 327.707 40.0754C326.994 40.8631 325.738 41.6508 325.689 41.9708C325.418 43.62 325.246 45.1462 325.935 45.5892C326.354 45.8108 327.068 45.3677 327.584 44.9492C328.495 44.1615 329.16 43.2508 329.701 42.4631C330.588 41.1585 331.129 40.1985 331.892 40.5923C332.188 40.7646 332.335 41.0846 332.261 41.4538C331.991 42.6354 329.972 44.9985 328.741 46.1554C328.126 46.7215 327.117 47.2877 326.378 47.2877ZM326.575 38.8938C327.338 38.8938 331.474 31.8785 331.08 31.8785C330.588 32.0508 330.071 32.6415 329.677 33.06C328.495 34.34 326.231 38.8938 326.575 38.8938ZM333.741 46.5738C331.747 46.5738 330.664 45.1708 330.664 43.0292C330.664 40.74 331.649 38.7708 333.175 37.1708C333.864 36.4569 334.627 36.1369 335.513 36.1615C337.433 36.2354 337.679 38.3277 336.252 39.7554C335.193 40.8138 334.085 41.4046 332.83 41.5523C332.609 41.5769 332.51 41.6262 332.485 41.7738C332.387 42.4138 332.165 43.1769 332.436 43.94C332.707 44.7277 333.347 45.0723 334.159 44.8754C335.489 44.5308 336.965 43.2508 338.172 41.9954C339.107 40.9862 339.452 40.5677 339.895 40.5431C340.51 40.4938 340.904 40.9862 340.682 41.6262C340.584 41.9462 338.959 43.6446 338.172 44.3092C336.744 45.54 335.218 46.5738 333.741 46.5738ZM333.347 39.7308C334.209 39.4108 334.775 38.9677 335.193 38.4508C335.365 38.2292 335.612 37.8354 335.316 37.8354C334.578 37.8354 333.79 38.8446 333.347 39.7308Z" fill="#113746"/>
<path d="M146.016 75.692C144.971 75.692 144.053 75.452 143.264 74.972C142.475 74.4813 141.861 73.804 141.424 72.94C140.987 72.076 140.768 71.068 140.768 69.916C140.768 68.7747 140.987 67.7667 141.424 66.892C141.872 66.0173 142.501 65.3347 143.312 64.844C144.133 64.3533 145.099 64.108 146.208 64.108C147.467 64.108 148.517 64.412 149.36 65.02C150.203 65.6173 150.741 66.4547 150.976 67.532H149.424C149.275 66.86 148.923 66.3267 148.368 65.932C147.813 65.5373 147.093 65.34 146.208 65.34C145.387 65.34 144.667 65.5267 144.048 65.9C143.44 66.2627 142.971 66.7853 142.64 67.468C142.309 68.1507 142.144 68.9667 142.144 69.916C142.144 70.8653 142.309 71.6867 142.64 72.38C142.971 73.0627 143.429 73.5853 144.016 73.948C144.613 74.3107 145.296 74.492 146.064 74.492C147.259 74.492 148.16 74.14 148.768 73.436C149.376 72.732 149.723 71.7773 149.808 70.572H146.576V69.516H151.184V75.5H149.952L149.84 73.66C149.573 74.0973 149.264 74.4707 148.912 74.78C148.571 75.0787 148.165 75.308 147.696 75.468C147.227 75.6173 146.667 75.692 146.016 75.692ZM153.245 75.5V63.98H154.589V75.5H153.245ZM159.736 75.692C159.117 75.692 158.573 75.5693 158.104 75.324C157.645 75.0787 157.288 74.7 157.032 74.188C156.786 73.676 156.664 73.036 156.664 72.268V67.436H158.008V72.124C158.008 72.924 158.184 73.5267 158.536 73.932C158.888 74.3373 159.384 74.54 160.024 74.54C160.472 74.54 160.877 74.4333 161.24 74.22C161.602 73.996 161.885 73.6813 162.088 73.276C162.301 72.86 162.408 72.3533 162.408 71.756V67.436H163.752V75.5H162.536L162.456 74.092C162.21 74.5933 161.848 74.988 161.368 75.276C160.888 75.5533 160.344 75.692 159.736 75.692ZM169.147 75.5C168.667 75.5 168.251 75.4253 167.899 75.276C167.547 75.1267 167.275 74.876 167.083 74.524C166.902 74.1613 166.811 73.676 166.811 73.068V68.572H165.403V67.436H166.811L166.987 65.484H168.155V67.436H170.491V68.572H168.155V73.068C168.155 73.5693 168.257 73.9107 168.459 74.092C168.662 74.2627 169.019 74.348 169.531 74.348H170.395V75.5H169.147ZM175.562 75.692C174.805 75.692 174.133 75.516 173.546 75.164C172.97 74.812 172.517 74.3213 172.186 73.692C171.856 73.052 171.69 72.3107 171.69 71.468C171.69 70.6147 171.85 69.8733 172.17 69.244C172.501 68.6147 172.96 68.124 173.546 67.772C174.144 67.42 174.826 67.244 175.594 67.244C176.384 67.244 177.05 67.42 177.594 67.772C178.149 68.124 178.57 68.588 178.858 69.164C179.157 69.7293 179.306 70.3533 179.306 71.036C179.306 71.1427 179.306 71.2547 179.306 71.372C179.306 71.4893 179.301 71.6227 179.29 71.772H172.698V70.732H177.994C177.962 69.996 177.717 69.42 177.258 69.004C176.81 68.588 176.245 68.38 175.562 68.38C175.104 68.38 174.677 68.4867 174.282 68.7C173.898 68.9027 173.589 69.2067 173.354 69.612C173.12 70.0067 173.002 70.5027 173.002 71.1V71.548C173.002 72.2093 173.12 72.764 173.354 73.212C173.6 73.66 173.914 73.996 174.298 74.22C174.693 74.444 175.114 74.556 175.562 74.556C176.128 74.556 176.592 74.4333 176.954 74.188C177.328 73.932 177.594 73.5907 177.754 73.164H179.082C178.954 73.644 178.73 74.076 178.41 74.46C178.09 74.844 177.69 75.148 177.21 75.372C176.741 75.5853 176.192 75.692 175.562 75.692ZM181.12 75.5V67.436H182.336L182.4 68.844C182.656 68.3427 183.019 67.9533 183.488 67.676C183.968 67.388 184.512 67.244 185.12 67.244C185.749 67.244 186.293 67.372 186.752 67.628C187.211 67.8733 187.568 68.252 187.824 68.764C188.08 69.2653 188.208 69.9053 188.208 70.684V75.5H186.864V70.828C186.864 70.0173 186.683 69.4093 186.32 69.004C185.968 68.5987 185.467 68.396 184.816 68.396C184.368 68.396 183.968 68.508 183.616 68.732C183.264 68.9453 182.981 69.26 182.768 69.676C182.565 70.0813 182.464 70.588 182.464 71.196V75.5H181.12ZM190.34 71.34V70.204H196.676V71.34H190.34ZM199.412 75.5V66.188C199.412 65.676 199.497 65.26 199.668 64.94C199.838 64.6093 200.089 64.3693 200.42 64.22C200.761 64.06 201.177 63.98 201.668 63.98H202.58V65.132H201.876C201.481 65.132 201.193 65.212 201.012 65.372C200.841 65.532 200.756 65.8147 200.756 66.22V75.5H199.412ZM198.18 68.572V67.436H202.788V68.572H198.18ZM204.401 75.5V67.436H205.617L205.713 68.972C205.895 68.6093 206.124 68.3 206.401 68.044C206.689 67.788 207.031 67.5907 207.425 67.452C207.831 67.3133 208.289 67.244 208.801 67.244V68.652H208.305C207.964 68.652 207.639 68.7 207.329 68.796C207.02 68.8813 206.743 69.0253 206.497 69.228C206.263 69.4307 206.076 69.708 205.937 70.06C205.809 70.4013 205.745 70.828 205.745 71.34V75.5H204.401ZM213.562 75.692C212.805 75.692 212.133 75.516 211.546 75.164C210.97 74.812 210.517 74.3213 210.186 73.692C209.856 73.052 209.69 72.3107 209.69 71.468C209.69 70.6147 209.85 69.8733 210.17 69.244C210.501 68.6147 210.96 68.124 211.546 67.772C212.144 67.42 212.826 67.244 213.594 67.244C214.384 67.244 215.05 67.42 215.594 67.772C216.149 68.124 216.57 68.588 216.858 69.164C217.157 69.7293 217.306 70.3533 217.306 71.036C217.306 71.1427 217.306 71.2547 217.306 71.372C217.306 71.4893 217.301 71.6227 217.29 71.772H210.698V70.732H215.994C215.962 69.996 215.717 69.42 215.258 69.004C214.81 68.588 214.245 68.38 213.562 68.38C213.104 68.38 212.677 68.4867 212.282 68.7C211.898 68.9027 211.589 69.2067 211.354 69.612C211.12 70.0067 211.002 70.5027 211.002 71.1V71.548C211.002 72.2093 211.12 72.764 211.354 73.212C211.6 73.66 211.914 73.996 212.298 74.22C212.693 74.444 213.114 74.556 213.562 74.556C214.128 74.556 214.592 74.4333 214.954 74.188C215.328 73.932 215.594 73.5907 215.754 73.164H217.082C216.954 73.644 216.73 74.076 216.41 74.46C216.09 74.844 215.69 75.148 215.21 75.372C214.741 75.5853 214.192 75.692 213.562 75.692ZM222.656 75.692C221.899 75.692 221.227 75.516 220.64 75.164C220.064 74.812 219.611 74.3213 219.28 73.692C218.949 73.052 218.784 72.3107 218.784 71.468C218.784 70.6147 218.944 69.8733 219.264 69.244C219.595 68.6147 220.053 68.124 220.64 67.772C221.237 67.42 221.92 67.244 222.688 67.244C223.477 67.244 224.144 67.42 224.688 67.772C225.243 68.124 225.664 68.588 225.952 69.164C226.251 69.7293 226.4 70.3533 226.4 71.036C226.4 71.1427 226.4 71.2547 226.4 71.372C226.4 71.4893 226.395 71.6227 226.384 71.772H219.792V70.732H225.088C225.056 69.996 224.811 69.42 224.352 69.004C223.904 68.588 223.339 68.38 222.656 68.38C222.197 68.38 221.771 68.4867 221.376 68.7C220.992 68.9027 220.683 69.2067 220.448 69.612C220.213 70.0067 220.096 70.5027 220.096 71.1V71.548C220.096 72.2093 220.213 72.764 220.448 73.212C220.693 73.66 221.008 73.996 221.392 74.22C221.787 74.444 222.208 74.556 222.656 74.556C223.221 74.556 223.685 74.4333 224.048 74.188C224.421 73.932 224.688 73.5907 224.848 73.164H226.176C226.048 73.644 225.824 74.076 225.504 74.46C225.184 74.844 224.784 75.148 224.304 75.372C223.835 75.5853 223.285 75.692 222.656 75.692Z" fill="#113746"/>
<g clip-path="url(#clip0_599_137)">
<path d="M73.701 17.0667C52.9858 11.5161 31.6171 23.8533 26.0664 44.5685C20.5158 65.2837 32.8531 86.6524 53.5683 92.2031C74.2837 97.7538 95.6525 85.4165 101.203 64.7013C106.754 43.9861 94.4165 22.6174 73.701 17.0667ZM60.2669 63.654C59.0636 64.407 57.8256 65.0319 56.0123 65.3836C54.1987 65.7354 52.0702 65.5839 49.6204 64.9274C46.5057 64.0929 44.1431 62.4221 42.6906 59.9573C41.2378 57.4926 40.8472 54.6934 41.6756 51.6019L43.101 46.2822C43.9262 43.2024 45.6269 40.9667 48.0432 39.5324C50.4593 38.098 53.2006 37.7916 56.1873 38.5919C59.2903 39.4233 61.4848 40.8211 62.7308 42.774C63.9767 44.7272 64.2884 46.9758 63.6638 49.4464L63.6017 49.5786L58.7894 48.2892C59.0894 46.7956 58.923 45.6911 58.364 44.6973C57.8051 43.7036 56.7892 42.9912 55.3079 42.5943C53.7444 42.1753 52.3689 42.4441 51.0893 43.3942C49.8094 44.3443 48.9611 45.7721 48.4521 47.6718L47.0187 53.0215C46.5003 54.9562 46.5313 56.6478 47.1998 58.1199C47.868 59.5919 49.0205 60.5469 50.7004 60.997C51.8903 61.3158 52.9139 61.4594 53.7029 61.4088C54.4915 61.3584 54.928 61.1513 55.6254 60.9516L56.8745 56.2898L52.1352 55.0199L53.0831 51.4821L62.8288 54.0935L60.267 63.654L60.2669 63.654ZM87.2126 51.4694L74.53 48.0711L72.6341 55.1467L83.5145 58.0621L82.495 61.8669L71.6146 58.9515L68.7707 69.5649L63.7644 68.2235L70.5432 42.9249L88.2321 47.6646L87.2126 51.4694Z" fill="#113746"/>
</g>
<defs>
<radialGradient id="paint0_radial_599_137" cx="0" cy="0" r="1" gradientUnits="userSpaceOnUse" gradientTransform="rotate(90) scale(110 346.193)">
<stop stop-color="#E84376"/>
<stop offset="0.75" stop-color="#E84376" stop-opacity="0"/>
</radialGradient>
<radialGradient id="paint1_radial_599_137" cx="0" cy="0" r="1" gradientUnits="userSpaceOnUse" gradientTransform="translate(375 110) rotate(180) scale(375 129.068)">
<stop stop-color="#72D1D1"/>
<stop offset="0.75" stop-color="#72D1D1" stop-opacity="0"/>
</radialGradient>
<clipPath id="clip0_599_137">
<rect width="77.7872" height="77.7872" fill="white" transform="translate(36.1328 7) rotate(15)"/>
</clipPath>
</defs>
</svg>
