<svg width="200" height="136" viewBox="0 0 200 136" fill="none" xmlns="http://www.w3.org/2000/svg">
<g clip-path="url(#clip0_236_568)">
<rect width="200" height="135.714" fill="#4392A2"/>
<path d="M86.2471 11.3272C80.3412 15.1692 67.8575 14.2646 67.8573 16.0011C67.857 17.7375 77.9012 19.3656 80.6723 23.9212C83.4434 28.4768 79.0526 41.98 80.978 43.0324C82.9035 44.0847 90.3022 27.1711 96.1474 23.9212C101.993 20.6713 112.022 21.4253 111.992 20.2594C111.963 19.0936 104.485 17.4774 101.842 12.5612C99.1976 7.64487 102.657 -5.45658 100.29 -7.03458C97.9232 -8.61259 92.1529 7.48528 86.2471 11.3272Z" fill="#3F8D9D"/>
<path d="M18.3899 11.3272C12.4841 15.1692 0.00038147 14.2646 0.000141144 16.0011C-9.91821e-05 17.7375 10.044 19.3656 12.8151 23.9212C15.5862 28.4768 11.1954 41.98 13.1209 43.0324C15.0463 44.0847 22.445 27.1711 28.2903 23.9212C34.1355 20.6713 44.1644 21.4253 44.135 20.2594C44.1056 19.0936 36.6283 17.4774 33.9844 12.5612C31.3404 7.64487 34.8001 -5.45658 32.4331 -7.03458C30.066 -8.61259 24.2958 7.48528 18.3899 11.3272Z" fill="#3F8D9D"/>
<path d="M152.318 11.3272C146.413 15.1692 133.929 14.2646 133.929 16.0011C133.928 17.7375 143.973 19.3656 146.744 23.9212C149.515 28.4768 145.124 41.98 147.049 43.0324C148.975 44.0847 156.374 27.1711 162.219 23.9212C168.064 20.6713 178.093 21.4253 178.064 20.2594C178.034 19.0936 170.557 17.4774 167.913 12.5612C165.269 7.64487 168.729 -5.45658 166.362 -7.03458C163.995 -8.61259 158.224 7.48528 152.318 11.3272Z" fill="#3F8D9D"/>
<path d="M41.6042 57.7558C35.6984 61.5978 23.2147 60.6932 23.2144 62.4296C23.2142 64.1661 33.2583 65.7942 36.0294 70.3498C38.8005 74.9054 34.4097 88.4086 36.3352 89.461C38.2606 90.5133 45.6593 73.5997 51.5046 70.3498C57.3498 67.0999 67.3787 67.8538 67.3493 66.688C67.3199 65.5221 59.8426 63.906 57.1987 58.9897C54.5547 54.0734 58.0144 40.972 55.6473 39.394C53.2803 37.816 47.51 53.9138 41.6042 57.7558Z" fill="#3F8D9D"/>
<path d="M-22.6815 57.7558C-28.5874 61.5978 -41.071 60.6932 -41.0713 62.4296C-41.0715 64.1661 -31.0274 65.7942 -28.2563 70.3498C-25.4852 74.9054 -29.876 88.4086 -27.9506 89.461C-26.0251 90.5133 -18.6264 73.5997 -12.7811 70.3498C-6.93588 67.0999 3.09296 67.8538 3.06358 66.688C3.03419 65.5221 -4.44309 63.906 -7.08704 58.9897C-9.73099 54.0734 -6.27134 40.972 -8.63838 39.394C-11.0054 37.816 -16.7757 53.9138 -22.6815 57.7558Z" fill="#3F8D9D"/>
<path d="M109.461 57.7558C103.556 61.5978 91.0718 60.6932 91.0716 62.4296C91.0713 64.1661 101.115 65.7942 103.887 70.3498C106.658 74.9054 102.267 88.4086 104.192 89.461C106.118 90.5133 113.516 73.5997 119.362 70.3498C125.207 67.0999 135.236 67.8538 135.206 66.688C135.177 65.5221 127.7 63.906 125.056 58.9897C122.412 54.0734 125.872 40.972 123.504 39.394C121.137 37.816 115.367 53.9138 109.461 57.7558Z" fill="#3F8D9D"/>
<path d="M177.318 57.7558C171.413 61.5978 158.929 60.6932 158.929 62.4296C158.928 64.1661 168.973 65.7942 171.744 70.3498C174.515 74.9054 170.124 88.4086 172.049 89.461C173.975 90.5133 181.374 73.5997 187.219 70.3498C193.064 67.0999 203.093 67.8538 203.064 66.688C203.034 65.5221 195.557 63.906 192.913 58.9897C190.269 54.0734 193.729 40.972 191.362 39.394C188.995 37.816 183.224 53.9138 177.318 57.7558Z" fill="#3F8D9D"/>
<path d="M63.0328 100.613C57.1269 104.455 44.6432 103.55 44.643 105.287C44.6428 107.023 54.6869 108.651 57.458 113.207C60.2291 117.763 55.8383 131.266 57.7637 132.318C59.6892 133.37 67.0879 116.457 72.9332 113.207C78.7784 109.957 88.8073 110.711 88.7779 109.545C88.7485 108.379 81.2712 106.763 78.6272 101.847C75.9833 96.9306 79.443 83.8291 77.0759 82.2511C74.7089 80.6731 68.9386 96.771 63.0328 100.613Z" fill="#3F8D9D"/>
<path d="M-4.82437 100.613C-10.7302 104.455 -23.2139 103.55 -23.2141 105.287C-23.2144 107.023 -13.1702 108.651 -10.3991 113.207C-7.62806 117.763 -12.0189 131.266 -10.0934 132.318C-8.16796 133.37 -0.769245 116.457 5.07601 113.207C10.9213 109.957 20.9501 110.711 20.9207 109.545C20.8913 108.379 13.4141 106.763 10.7701 101.847C8.12615 96.9306 11.5858 83.8291 9.21877 82.2511C6.85172 80.6731 1.08147 96.771 -4.82437 100.613Z" fill="#3F8D9D"/>
<path d="M129.104 100.613C123.198 104.455 110.715 103.55 110.714 105.287C110.714 107.023 120.758 108.651 123.529 113.207C126.301 117.763 121.91 131.266 123.835 132.318C125.761 133.37 133.159 116.457 139.005 113.207C144.85 109.957 154.879 110.711 154.849 109.545C154.82 108.379 147.343 106.763 144.699 101.847C142.055 96.9306 145.514 83.8291 143.147 82.2511C140.78 80.6731 135.01 96.771 129.104 100.613Z" fill="#3F8D9D"/>
<path d="M195.176 100.613C189.27 104.455 176.786 103.55 176.786 105.287C176.786 107.023 186.83 108.651 189.601 113.207C192.372 117.763 187.981 131.266 189.907 132.318C191.832 133.37 199.231 116.457 205.076 113.207C210.921 109.957 220.95 110.711 220.921 109.545C220.891 108.379 213.414 106.763 210.77 101.847C208.126 96.9306 211.586 83.8291 209.219 82.2511C206.852 80.6731 201.081 96.771 195.176 100.613Z" fill="#3F8D9D"/>
<path d="M18.3899 147.042C12.4841 150.883 0.00038147 149.979 0.000141144 151.715C-9.91821e-05 153.452 10.044 155.08 12.8151 159.635C15.5862 164.191 11.1954 177.694 13.1209 178.747C15.0463 179.799 22.445 162.885 28.2903 159.635C34.1355 156.386 44.1644 157.14 44.135 155.974C44.1056 154.808 36.6283 153.192 33.9844 148.275C31.3404 143.359 34.8001 130.258 32.4331 128.68C30.066 127.102 24.2958 143.2 18.3899 147.042Z" fill="#3F8D9D"/>
<path d="M86.2471 147.042C80.3412 150.883 67.8575 149.979 67.8573 151.715C67.857 153.452 77.9012 155.08 80.6723 159.635C83.4434 164.191 79.0526 177.694 80.978 178.747C82.9035 179.799 90.3022 162.885 96.1474 159.635C101.993 156.386 112.022 157.14 111.992 155.974C111.963 154.808 104.485 153.192 101.842 148.275C99.1976 143.359 102.657 130.258 100.29 128.68C97.9232 127.102 92.1529 143.2 86.2471 147.042Z" fill="#3F8D9D"/>
<path d="M152.318 147.042C146.413 150.883 133.929 149.979 133.929 151.715C133.928 153.452 143.973 155.08 146.744 159.635C149.515 164.191 145.124 177.694 147.049 178.747C148.975 179.799 156.374 162.885 162.219 159.635C168.064 156.386 178.093 157.14 178.064 155.974C178.034 154.808 170.557 153.192 167.913 148.275C165.269 143.359 168.729 130.258 166.362 128.68C163.995 127.102 158.224 143.2 152.318 147.042Z" fill="#3F8D9D"/>
</g>
<defs>
<clipPath id="clip0_236_568">
<rect width="200" height="135.714" fill="white"/>
</clipPath>
</defs>
</svg>
