<svg width="71" height="60" viewBox="0 0 71 60" fill="none" xmlns="http://www.w3.org/2000/svg">
<path d="M43.3348 19.587C41.0925 20.425 38.8732 21.3284 36.6 22.0626C36.0115 22.2548 35.2384 21.9589 34.573 21.8089C33.523 21.5706 32.4883 21.0401 31.446 21.0401C29.6613 21.0401 28.2882 20.6057 27.3267 18.9604C27.1151 18.5991 26.1112 18.7029 25.4728 18.5952L25.0612 19.168C25.642 20.0714 26.0766 21.1247 26.8305 21.8589C28.9652 23.9194 31.0614 26.0452 33.4692 27.7827C40.6732 33.0184 47.9042 38.2618 56.5468 41.0258C58.1693 41.5709 59.8221 42.0215 61.4969 42.3751C61.8119 42.415 62.1318 42.3812 62.4315 42.2765C62.7312 42.1718 63.0024 41.9989 63.2239 41.7715C63.5393 41.3256 63.6278 40.2339 63.3162 39.9148C62.0585 38.5117 60.6644 37.2368 59.1545 36.1091C55.6583 33.5951 52.0543 31.2271 48.4773 28.8053L53.6813 23.8079C59.6238 27.579 65.9894 31.0771 69.6472 37.7467C71.1664 40.5107 71.7511 43.3438 69.5549 45.9001C67.3586 48.4565 64.7201 50.5131 60.8392 49.8865C49.685 48.0605 40.0693 42.7018 30.7037 36.7818C26.3709 34.1476 23.1789 29.9908 21.7534 25.1264C20.338 20.4289 22.8496 16.3925 27.769 16.0004C30.2691 15.8005 32.8768 16.3233 35.3731 16.8231C38.0347 17.3574 40.6232 18.2454 43.2464 18.9796C43.2733 19.1834 43.3041 19.3833 43.3348 19.587Z" fill="#E84376"/>
<path d="M33.7038 25.288C45.0426 21.2056 47.9581 19.4488 49.0889 16.0621C48.4848 15.8882 47.8628 15.7838 47.235 15.7507C42.531 16.0275 38.1193 14.5552 33.6038 13.6249C29.6075 12.8061 25.6997 13.402 22.4496 15.9929C21.1727 17.0078 20.4803 18.7415 19.4495 20.0908C18.8772 20.928 18.1808 21.6733 17.3841 22.3011C14.9879 23.9541 12.4916 25.461 10.0531 27.0487C9.10306 27.6714 8.19534 28.3595 7.27224 29.013C7.44916 29.3013 7.62609 29.5935 7.80687 29.8818C8.83382 29.9933 9.87616 30.2662 10.8839 30.1932C13.6032 30.024 16.3225 29.7857 19.0226 29.4243C20.1765 29.2706 20.8073 29.5358 21.4842 30.5391C22.9535 32.7226 24.6458 34.7677 26.2882 36.9089C19.7803 38.6041 13.1032 40.1687 6.2299 37.6777C3.15288 36.5629 1.41052 34.218 0.595111 31.2003C-0.2703 28.0135 1.82207 25.807 3.86059 24.0079C6.26835 21.954 8.87936 20.1507 11.6531 18.6261C18.411 14.8051 25.4997 11.6298 33.2423 10.5304C37.477 9.94609 41.8194 9.93455 46.0926 10.0729C47.8158 10.1306 49.6004 11.1185 51.1813 11.995C54.2237 13.698 54.7929 18.53 52.4851 21.7745C49.9581 25.3111 46.4311 27.6791 42.8695 29.974C42.6563 30.087 42.4202 30.1502 42.179 30.1589C41.9379 30.1675 41.6979 30.1214 41.4771 30.024C38.9617 28.5671 36.5116 27.0217 33.7038 25.288Z" fill="#E84376"/>
</svg>
